<?xml version="1.0" encoding="UTF-8" standalone="no"?>
<svg width="20px" height="20px" viewBox="0 0 20 20" version="1.1" xmlns="http://www.w3.org/2000/svg" xmlns:xlink="http://www.w3.org/1999/xlink">
    <!-- Generator: Sketch 3.7 (28169) - http://www.bohemiancoding.com/sketch -->
    <title>Shape</title>
    <desc>Created with Sketch.</desc>
    <defs></defs>
    <g id="Noticias" stroke="none" stroke-width="1" fill="none" fill-rule="evenodd">
        <g id="Ficha-Noticia-LG" transform="translate(-176.000000, -995.000000)" fill="#1A3861">
            <path d="M194.33375,996.875 L191.625,996.875 L191.625,995.625 C191.625,995.279375 191.345625,995 191,995 C190.654375,995 190.375,995.279375 190.375,995.625 L190.375,996.875 L186.625,996.875 L186.625,995.625 C186.625,995.279375 186.345,995 186,995 C185.655,995 185.375,995.279375 185.375,995.625 L185.375,996.875 L181.625,996.875 L181.625,995.625 C181.625,995.279375 181.345,995 181,995 C180.655,995 180.375,995.279375 180.375,995.625 L180.375,996.875 L177.666875,996.875 C176.74625,996.875 176,997.620625 176,998.54125 L176,1013.33312 C176,1014.25375 176.74625,1015 177.666875,1015 L194.33375,1015 C195.254375,1015 196,1014.25375 196,1013.33312 L196,998.54125 C196,997.620625 195.254375,996.875 194.33375,996.875 Z M194.75,1013.33312 C194.75,1013.56313 194.563125,1013.75 194.33375,1013.75 L177.666875,1013.75 C177.436875,1013.75 177.25,1013.56313 177.25,1013.33312 L177.25,998.54125 C177.25,998.311875 177.436875,998.125 177.666875,998.125 L180.375,998.125 L180.375,999.375 C180.375,999.720625 180.655,1000 181,1000 C181.345,1000 181.625,999.720625 181.625,999.375 L181.625,998.125 L185.375,998.125 L185.375,999.375 C185.375,999.720625 185.655,1000 186,1000 C186.345,1000 186.625,999.720625 186.625,999.375 L186.625,998.125 L190.375,998.125 L190.375,999.375 C190.375,999.720625 190.654375,1000 191,1000 C191.345625,1000 191.625,999.720625 191.625,999.375 L191.625,998.125 L194.33375,998.125 C194.563125,998.125 194.75,998.311875 194.75,998.54125 L194.75,1013.33312 Z M189.125,1002.5 L191.625,1002.5 L191.625,1004.375 L189.125,1004.375 L189.125,1002.5 Z M189.125,1005.625 L191.625,1005.625 L191.625,1007.5 L189.125,1007.5 L189.125,1005.625 Z M189.125,1008.75 L191.625,1008.75 L191.625,1010.625 L189.125,1010.625 L189.125,1008.75 Z M184.75,1002.5 L187.25,1002.5 L187.25,1004.375 L184.75,1004.375 L184.75,1002.5 Z M184.75,1005.625 L187.25,1005.625 L187.25,1007.5 L184.75,1007.5 L184.75,1005.625 Z M184.75,1008.75 L187.25,1008.75 L187.25,1010.625 L184.75,1010.625 L184.75,1008.75 Z M180.375,1008.75 L182.875,1008.75 L182.875,1010.625 L180.375,1010.625 L180.375,1008.75 Z M180.375,1005.625 L182.875,1005.625 L182.875,1007.5 L180.375,1007.5 L180.375,1005.625 Z M180.375,1002.5 L182.875,1002.5 L182.875,1004.375 L180.375,1004.375 L180.375,1002.5 Z" id="Shape"></path>
        </g>
    </g>
</svg>