<?xml version="1.0" encoding="UTF-8" standalone="no"?>
<svg width="20px" height="18px" viewBox="0 0 20 18" version="1.1" xmlns="http://www.w3.org/2000/svg" xmlns:xlink="http://www.w3.org/1999/xlink">
    <!-- Generator: Sketch 3.6.1 (26313) - http://www.bohemiancoding.com/sketch -->
    <title>calendar_1_</title>
    <desc>Created with Sketch.</desc>
    <defs></defs>
    <g id="Noticias" stroke="none" stroke-width="1" fill="none" fill-rule="evenodd">
        <g id="Noticias-LG-LG" transform="translate(-152.000000, -1326.000000)" fill="#FFFFFF">
            <g id="Group-5" transform="translate(135.000000, 1142.000000)">
                <g id="Group-21-Copy-8">
                    <g id="Group-33-Copy-2">
                        <g id="Group-33-Copy-3" transform="translate(17.944444, 184.000000)">
                            <g id="small-calendar">
                                <g id="Capa_1">
                                    <g id="calendar_1_">
                                        <path d="M17.1627988,1.6875 L14.6270529,1.6875 L14.6270529,0.5625 C14.6270529,0.2514375 14.3655212,0 14.0419708,0 C13.7184204,0 13.4568887,0.2514375 13.4568887,0.5625 L13.4568887,1.6875 L9.94639599,1.6875 L9.94639599,0.5625 C9.94639599,0.2514375 9.6842792,0 9.36131387,0 C9.03834854,0 8.77623175,0.2514375 8.77623175,0.5625 L8.77623175,1.6875 L5.26573905,1.6875 L5.26573905,0.5625 C5.26573905,0.2514375 5.00362226,0 4.68065693,0 C4.35769161,0 4.09557482,0.2514375 4.09557482,0.5625 L4.09557482,1.6875 L1.56041401,1.6875 C0.698588047,1.6875 0,2.3585625 0,3.187125 L0,16.4998125 C0,17.328375 0.698588047,18 1.56041401,18 L17.1627988,18 C18.0246248,18 18.7226277,17.328375 18.7226277,16.4998125 L18.7226277,3.187125 C18.7226277,2.3585625 18.0246248,1.6875 17.1627988,1.6875 L17.1627988,1.6875 Z M17.5524635,16.4998125 C17.5524635,16.7068125 17.377524,16.875 17.1627988,16.875 L1.56041401,16.875 C1.34510379,16.875 1.17016423,16.7068125 1.17016423,16.4998125 L1.17016423,3.187125 C1.17016423,2.9806875 1.34510379,2.8125 1.56041401,2.8125 L4.09557482,2.8125 L4.09557482,3.9375 C4.09557482,4.2485625 4.35769161,4.5 4.68065693,4.5 C5.00362226,4.5 5.26573905,4.2485625 5.26573905,3.9375 L5.26573905,2.8125 L8.77623175,2.8125 L8.77623175,3.9375 C8.77623175,4.2485625 9.03834854,4.5 9.36131387,4.5 C9.6842792,4.5 9.94639599,4.2485625 9.94639599,3.9375 L9.94639599,2.8125 L13.4568887,2.8125 L13.4568887,3.9375 C13.4568887,4.2485625 13.7184204,4.5 14.0419708,4.5 C14.3655212,4.5 14.6270529,4.2485625 14.6270529,3.9375 L14.6270529,2.8125 L17.1627988,2.8125 C17.377524,2.8125 17.5524635,2.9806875 17.5524635,3.187125 L17.5524635,16.4998125 L17.5524635,16.4998125 Z" id="Shape"></path>
                                        <rect id="Rectangle-path" x="4.09557482" y="6.75" width="2.34032847" height="1.6875"></rect>
                                        <rect id="Rectangle-path" x="4.09557482" y="9.5625" width="2.34032847" height="1.6875"></rect>
                                        <rect id="Rectangle-path" x="4.09557482" y="12.375" width="2.34032847" height="1.6875"></rect>
                                        <rect id="Rectangle-path" x="8.19114964" y="12.375" width="2.34032847" height="1.6875"></rect>
                                        <rect id="Rectangle-path" x="8.19114964" y="9.5625" width="2.34032847" height="1.6875"></rect>
                                        <rect id="Rectangle-path" x="8.19114964" y="6.75" width="2.34032847" height="1.6875"></rect>
                                        <rect id="Rectangle-path" x="12.2867245" y="12.375" width="2.34032847" height="1.6875"></rect>
                                        <rect id="Rectangle-path" x="12.2867245" y="9.5625" width="2.34032847" height="1.6875"></rect>
                                        <rect id="Rectangle-path" x="12.2867245" y="6.75" width="2.34032847" height="1.6875"></rect>
                                    </g>
                                </g>
                            </g>
                        </g>
                    </g>
                </g>
            </g>
        </g>
    </g>
</svg>