<?xml version="1.0" encoding="UTF-8" standalone="no"?>
<svg width="16px" height="20px" viewBox="0 0 16 20" version="1.1" xmlns="http://www.w3.org/2000/svg" xmlns:xlink="http://www.w3.org/1999/xlink">
    <!-- Generator: Sketch 3.6.1 (26313) - http://www.bohemiancoding.com/sketch -->
    <title>location</title>
    <desc>Created with Sketch.</desc>
    <defs></defs>
    <g id="HOME" stroke="none" stroke-width="1" fill="none" fill-rule="evenodd">
        <g id="Home-LG-2" transform="translate(-950.000000, -3080.000000)" fill="#E7BB00">
            <g id="Group-28-Copy-9" transform="translate(835.000000, 3008.000000)">
                <g id="Group-25" transform="translate(115.000000, 72.000000)">
                    <path d="M7.78631654,20 C7.62927726,20 7.47931762,19.9356044 7.37054861,19.8216241 C7.06998572,19.5015777 0,11.9563398 0,7.79058536 C0,3.49475175 3.49283682,0 7.78631654,0 C12.0791527,0 15.5726331,3.49475175 15.5726331,7.79058536 C15.5726331,11.9569837 8.50329097,19.5022216 8.20208448,19.8216241 C8.09395907,19.9356044 7.94335582,20 7.78631654,20 Z M7.78631654,1.14237878 C4.12292476,1.14237878 1.14239642,4.12454118 1.14239642,7.7899414 C1.14239642,10.6742224 5.60450029,16.183914 7.78631654,18.5871595 C9.9687764,16.18327 14.4302367,10.6748664 14.4302367,7.7899414 C14.4308803,4.12454118 11.4497083,1.14237878 7.78631654,1.14237878 Z M7.78631654,10.2286045 C5.97006714,10.2286045 4.49299684,8.75072445 4.49299684,6.9334793 C4.49299684,5.1168781 5.97006714,3.63835405 7.78631654,3.63835405 C9.60192234,3.63835405 11.0796362,5.1168781 11.0796362,6.9334793 C11.0796362,8.75072445 9.60256595,10.2286045 7.78631654,10.2286045 Z M7.78631654,4.78137678 C6.59951148,4.78137678 5.63474966,5.74666753 5.63474966,6.9334793 C5.63474966,8.12093502 6.59951148,9.08622577 7.78631654,9.08622577 C8.97247801,9.08622577 9.93723983,8.12093502 9.93723983,6.9334793 C9.93723983,5.74666753 8.97247801,4.78137678 7.78631654,4.78137678 Z" id="location"></path>
                </g>
            </g>
        </g>
    </g>
</svg>