<?xml version="1.0" encoding="UTF-8" standalone="no"?>
<svg width="67px" height="67px" viewBox="0 0 67 67" version="1.1" xmlns="http://www.w3.org/2000/svg" xmlns:xlink="http://www.w3.org/1999/xlink">
    <!-- Generator: Sketch 3.6.1 (26313) - http://www.bohemiancoding.com/sketch -->
    <title>Group 3</title>
    <desc>Created with Sketch.</desc>
    <defs></defs>
    <g id="Galería-Multimedia" stroke="none" stroke-width="1" fill="none" fill-rule="evenodd">
        <g id="Galería-Multimedia-LG---Seleccionado" transform="translate(-1083.000000, -716.000000)">
            <g id="technology" transform="translate(1084.000000, 717.000000)">
                <g id="Capa_1">
                    <g id="Group-3">
                        <path d="M16.3392495,46.1846118 L49.367478,46.1846118 C50.5495267,46.1846118 51.5113252,45.4039256 51.5113252,44.4441579 L51.5113252,25.0275921 C51.5113252,24.0678243 50.5496957,23.2871382 49.367478,23.2871382 L42.6893171,23.2871382 L41.7584517,20.4531199 C41.5594997,19.8479475 40.8816768,19.4252874 40.1102096,19.4252874 L25.5961799,19.4252874 C24.8245436,19.4252874 24.1468898,19.8479475 23.9477688,20.4533943 L23.0169033,23.2871382 L16.3392495,23.2871382 C15.1570318,23.2871382 14.1954023,24.0678243 14.1954023,25.0275921 L14.1954023,44.4441579 C14.1954023,45.4037884 15.1570318,46.1846118 16.3392495,46.1846118 L16.3392495,46.1846118 Z M26.2336038,21.4836969 L39.4729547,21.4836969 L40.0654158,23.2871382 L25.6411427,23.2871382 L26.2336038,21.4836969 L26.2336038,21.4836969 Z M16.7308993,25.3455477 L48.9756592,25.3455477 L48.9756592,44.1262022 L16.7308993,44.1262022 L16.7308993,25.3455477 L16.7308993,25.3455477 Z M32.7853145,26.5944534 C28.2511162,26.5944534 24.562385,30.2467582 24.562385,34.7360122 C24.562385,39.2252662 28.2511162,42.877571 32.7853145,42.877571 C37.3195128,42.877571 41.0082441,39.2252662 41.0082441,34.7360122 C41.0082441,30.2467582 37.3195128,26.5944534 32.7853145,26.5944534 L32.7853145,26.5944534 Z M32.7853145,40.8190242 C29.397625,40.8190242 26.6414024,38.090122 26.6414024,34.735875 C26.6414024,31.381628 29.397625,28.6527258 32.7853145,28.6527258 C36.1730041,28.6527258 38.9292267,31.381628 38.9292267,34.735875 C38.9292267,38.090122 36.1730041,40.8190242 32.7853145,40.8190242 L32.7853145,40.8190242 Z M45.525524,26.5594605 C44.5468222,26.5594605 43.7506761,27.2059383 43.7506761,28.0004844 C43.7506761,28.7948933 44.5468222,29.4412339 45.525524,29.4412339 C46.5045639,29.4412339 47.3007099,28.7948933 47.3007099,28.0004844 C47.3007099,27.2059383 46.5045639,26.5594605 45.525524,26.5594605 L45.525524,26.5594605 Z" id="Shape" fill="#FFFFFF"></path>
                        <circle id="Oval-3" stroke="#FFFFFF" stroke-width="2" cx="32.5" cy="32.5" r="32.5"></circle>
                    </g>
                </g>
            </g>
        </g>
    </g>
</svg>