<?xml version="1.0" encoding="UTF-8" standalone="no"?>
<svg width="80px" height="80px" viewBox="0 0 80 80" version="1.1" xmlns="http://www.w3.org/2000/svg" xmlns:xlink="http://www.w3.org/1999/xlink">
    <!-- Generator: Sketch 3.6.1 (26313) - http://www.bohemiancoding.com/sketch -->
    <title>Fill 1</title>
    <desc>Created with Sketch.</desc>
    <defs></defs>
    <g id="HOME" stroke="none" stroke-width="1" fill="none" fill-rule="evenodd">
        <g id="Home-LG-2" transform="translate(-580.000000, -1134.000000)" fill="#257FA7">
            <g id="Group-20" transform="translate(0.000000, 988.000000)">
                <g id="Group-23-Copy">
                    <g id="Group-9" transform="translate(135.000000, 116.000000)">
                        <g id="Group-5" transform="translate(400.000000, 0.000000)">
                            <path d="M87.4713725,69.5843137 L87.4713725,46.9269281 C87.4713725,45.5711111 86.2900654,44.4775163 84.9341176,44.4775163 C83.6660131,44.4775163 82.5284967,45.5711111 82.5284967,46.9269281 L82.5284967,69.9341176 C82.5284967,69.9780392 82.6162092,70.1534641 82.6162092,70.284183 C82.5284967,71.071634 82.7478431,71.7277124 83.2722876,72.2530719 L96.3511111,85.3309804 C97.2262745,86.2061438 98.8443137,86.2061438 99.7188235,85.3309804 C100.724575,84.325098 100.658431,82.8656209 99.7188235,81.9193464 L87.4713725,69.5843137 Z M115.421438,87.6058824 C112.281438,92.9908497 107.979739,97.2628758 102.561961,100.421438 C97.1769935,103.561438 91.276732,105.144967 84.9351634,105.144967 C80.1678431,105.144967 75.6188235,104.226797 71.2881046,102.345621 C66.9575163,100.465359 63.2184314,97.9934641 60.0905882,94.8665359 C56.9627451,91.7386928 54.4732026,87.9631373 52.611634,83.625098 C50.7555556,79.3028758 49.8560784,74.7024837 49.8560784,69.9342484 C49.8560784,63.5917647 51.4143791,57.7214379 54.536732,52.3513725 C57.6701961,46.9616993 61.9728105,42.685098 67.3522876,39.5356863 C72.7308497,36.3864052 78.5928105,34.8112418 84.9342484,34.8112418 C91.276732,34.8112418 97.1759477,36.3956863 102.561046,39.5356863 C107.978824,42.6943791 112.271242,46.9708497 115.420523,52.3512418 C118.569804,57.730719 120.144052,63.5917647 120.144052,69.9341176 C120.144052,76.276732 118.580131,82.1870588 115.421438,87.6058824 M121.806797,54.4069281 C117.58902,44.5735948 110.421699,37.4220915 100.506275,33.1932026 C95.5504575,31.0796078 90.3584314,30 84.9342484,30 C79.5109804,30 74.3572549,31.0694118 69.4069281,33.1932026 C59.5735948,37.4108497 52.3745098,44.5577778 48.149281,54.4069281 C46.0320261,59.3413072 45,64.5108497 45,69.9341176 C45,75.3584314 46.0320261,80.5708497 48.149281,85.5062745 C52.3745098,95.3554248 59.5745098,102.545229 69.4069281,106.763922 C74.3581699,108.887712 79.5108497,109.956078 84.9342484,109.956078 C90.3576471,109.956078 95.5504575,108.876471 100.50549,106.763922 C110.420915,102.534902 117.588235,95.3386928 121.806928,85.5062745 C123.930588,80.5550327 125,75.3584314 125,69.9341176 C125,64.5108497 123.931503,59.3580392 121.806797,54.4069281" id="Fill-1"></path>
                        </g>
                    </g>
                </g>
            </g>
        </g>
    </g>
</svg>