<?xml version="1.0" encoding="UTF-8" standalone="no"?>
<svg width="41px" height="41px" viewBox="0 0 41 41" version="1.1" xmlns="http://www.w3.org/2000/svg" xmlns:xlink="http://www.w3.org/1999/xlink">
    <!-- Generator: Sketch 3.7.2 (28276) - http://www.bohemiancoding.com/sketch -->
    <title>Shape</title>
    <desc>Created with Sketch.</desc>
    <defs></defs>
    <g id="Guías-de-Estudio" stroke="none" stroke-width="1" fill="none" fill-rule="evenodd">
        <g id="Guía-Estudio---02" transform="translate(-790.000000, -344.000000)" fill="#137960">
            <path d="M810.5,344 C799.225,344 790,353.225 790,364.5 C790,375.775 799.225,385 810.5,385 C821.775,385 831,375.775 831,364.5 C831,353.225 821.775,344 810.5,344 L810.5,344 Z M824.787879,356.921212 L818.419732,356.921212 C817.760958,354.229293 816.663002,351.951515 815.345455,349.466667 C819.298097,350.916162 822.811557,353.40101 824.787879,356.921212 L824.787879,356.921212 Z M811.121212,348.721212 C812.795215,351.404848 814.259968,354.312121 815.09697,357.666667 L807.145455,357.666667 C807.982456,354.535758 809.447209,351.404848 811.121212,348.721212 L811.121212,348.721212 Z M795.36593,370.090909 C794.936118,368.749091 794.721212,367.183636 794.721212,365.618182 C794.721212,364.052727 794.936118,362.487273 795.36593,361.145455 L802.672727,361.145455 C802.457821,362.710909 802.457821,364.052727 802.457821,365.618182 C802.457821,367.183636 802.672727,368.525455 802.672727,370.090909 L795.36593,370.090909 L795.36593,370.090909 Z M797.206061,372.575758 L803.574207,372.575758 C804.232981,375.267677 805.330937,377.545455 806.648485,380.030303 C802.695842,378.580808 799.182382,376.09596 797.206061,372.575758 L797.206061,372.575758 Z M803.574207,356.921212 L797.206061,356.921212 C799.401973,353.40101 802.695842,350.916162 806.648485,349.466667 C805.330937,351.951515 804.232981,354.229293 803.574207,356.921212 L803.574207,356.921212 Z M811.121212,381.521212 C809.447209,378.837576 807.982456,375.930303 807.145455,372.575758 L815.09697,372.575758 C814.259968,375.706667 812.795215,378.837576 811.121212,381.521212 L811.121212,381.521212 Z M815.959358,370.090909 L806.322044,370.090909 C806.112537,368.525455 805.90303,367.183636 805.90303,365.618182 C805.90303,364.052727 806.112537,362.710909 806.322044,361.145455 L816.168865,361.145455 C816.378372,362.710909 816.587879,364.052727 816.587879,365.618182 C816.587879,367.183636 816.168865,368.525455 815.959358,370.090909 L815.959358,370.090909 Z M815.345455,380.030303 C816.663002,377.752525 817.760958,375.267758 818.419732,372.575758 L824.787879,372.575758 C822.811557,376.09596 819.298097,378.580808 815.345455,380.030303 L815.345455,380.030303 Z M819.321212,370.090909 C819.53612,368.525455 819.53612,367.183636 819.53612,365.618182 C819.53612,364.052727 819.321212,362.710909 819.321212,361.145455 L826.628087,361.145455 C827.057903,362.487273 827.272727,364.052727 827.272727,365.618182 C827.272727,367.183636 827.057819,368.749091 826.628087,370.090909 L819.321212,370.090909 L819.321212,370.090909 Z" id="Shape"></path>
        </g>
    </g>
</svg>