<?xml version="1.0" encoding="UTF-8" standalone="no"?>
<svg width="43px" height="35px" viewBox="0 0 43 35" version="1.1" xmlns="http://www.w3.org/2000/svg" xmlns:xlink="http://www.w3.org/1999/xlink">
    <!-- Generator: Sketch 3.6.1 (26313) - http://www.bohemiancoding.com/sketch -->
    <title>Shape</title>
    <desc>Created with Sketch.</desc>
    <defs></defs>
    <g id="Guías-de-Estudio" stroke="none" stroke-width="1" fill="none" fill-rule="evenodd">
        <g id="Guía-Estudio---02-Copy" transform="translate(-699.000000, -376.000000)" fill="#1A3760">
            <path d="M741.379642,383.219115 C741.321196,383.121244 740.396945,381.388773 738.541646,379.609558 C736.704017,377.840568 733.845634,376 730.083388,376 C726.321141,376 723.491301,377.846411 721.682215,379.625626 C721.124946,380.174875 720.657383,380.71682 720.270013,381.21202 C719.874488,380.713898 719.385178,380.16611 718.812958,379.609558 C716.967174,377.840568 714.111509,376 710.346544,376 C706.584298,376 703.757176,377.846411 701.94809,379.625626 C700.130849,381.409224 699.246014,383.147538 699.193005,383.248331 L699,384.048831 L699,410.170284 L701.912751,410.969324 L701.916828,410.975167 C701.956245,410.884599 702.745936,409.435518 704.178526,408.082846 C705.626066,406.718489 707.64175,405.460768 710.346544,405.454925 C713.131531,405.454925 715.251872,406.803214 716.742907,408.227462 C717.476871,408.934474 718.053169,409.645868 718.420151,410.176127 C718.610438,410.443447 718.743639,410.662563 718.833346,410.801336 C718.874122,410.875835 718.908102,410.932805 718.925771,410.969324 C718.932567,410.983932 718.942082,410.995618 718.942082,411 L718.942082,411 L718.942082,411 L718.948877,411 L721.652313,410.973706 L721.652313,410.973706 L721.655031,410.967863 L721.655031,410.96202 C721.716195,410.842237 722.501808,409.416528 723.911292,408.079925 C725.365628,406.715568 727.38403,405.457846 730.083388,405.452003 C732.868374,405.452003 734.983279,406.800292 736.48111,408.224541 C737.22187,408.931553 737.781857,409.642947 738.152917,410.173205 C738.344563,410.440526 738.479123,410.659641 738.570189,410.798414 C738.615043,410.872913 738.642227,410.929883 738.662615,410.966402 C738.673488,410.98101 738.678925,410.992696 738.678925,410.997078 L738.681643,410.997078 L738.681643,410.997078 L741.586239,410.167362 L741.586239,384.048831 L741.379642,383.219115 L741.379642,383.219115 Z M710.346544,402.118531 L710.343826,402.118531 C706.688956,402.118531 703.91892,403.861227 702.111193,405.589316 L702.111193,384.519199 C702.430603,383.994783 703.12787,382.957638 704.178526,381.958472 C705.626066,380.597037 707.64175,379.339316 710.346544,379.339316 C713.131531,379.339316 715.251872,380.689065 716.742907,382.107471 C717.476871,382.813022 718.053169,383.53318 718.420151,384.063439 C718.551993,384.244574 718.65801,384.409641 718.732766,384.535267 L718.732766,405.668197 C716.897855,403.918197 714.063937,402.118531 710.346544,402.118531 L710.346544,402.118531 Z M738.475046,405.668197 C736.627902,403.915275 733.800781,402.118531 730.083388,402.118531 C726.429876,402.112688 723.658482,403.861227 721.843959,405.589316 L721.843959,384.519199 C722.164728,383.999165 722.863354,382.957638 723.911292,381.958472 C725.365628,380.597037 727.38403,379.339316 730.083388,379.339316 C732.868374,379.339316 734.983279,380.689065 736.48111,382.107471 C737.22187,382.813022 737.781857,383.53318 738.152917,384.063439 C738.286118,384.244574 738.392135,384.409641 738.473687,384.535267 L738.475046,405.668197 L738.475046,405.668197 L738.475046,405.668197 Z" id="Shape"></path>
        </g>
    </g>
</svg>