<?xml version="1.0" encoding="UTF-8" standalone="no"?>
<svg width="41px" height="34px" viewBox="0 0 41 34" version="1.1" xmlns="http://www.w3.org/2000/svg" xmlns:xlink="http://www.w3.org/1999/xlink">
    <!-- Generator: Sketch 3.7.2 (28276) - http://www.bohemiancoding.com/sketch -->
    <title>Shape</title>
    <desc>Created with Sketch.</desc>
    <defs></defs>
    <g id="Guías-de-Estudio" stroke="none" stroke-width="1" fill="none" fill-rule="evenodd">
        <g id="Guía-Estudio---02" transform="translate(-700.000000, -344.000000)" fill="#127960">
            <g id="open-book" transform="translate(700.000000, 344.000000)">
                <g id="Capa_1">
                    <g id="Group">
                        <g id="c53_book">
                            <path d="M40.5834921,7.22514895 C40.5275238,7.13142552 39.6424444,5.47238095 37.8657778,3.76857295 C36.1060317,2.07455695 33.3687937,0.311996952 29.766,0.311996952 C26.1632063,0.311996952 23.4533016,2.08015238 21.7208889,3.78396038 C21.1872381,4.30993067 20.7394921,4.82890667 20.3685397,5.30311924 C19.9897778,4.82610895 19.5212063,4.30153752 18.9732381,3.76857295 C17.2056825,2.07455695 14.4710476,0.311996952 10.8656508,0.311996952 C7.26285714,0.311996952 4.55555556,2.08015238 2.82314286,3.78396038 C1.08292063,5.49196495 0.235587302,7.15660495 0.184825397,7.2531261 L0,8.01969981 L0,33.0340632 L2.78930159,33.7992381 L2.79320635,33.8048335 C2.83095238,33.7181044 3.5871746,32.3304381 4.95904762,31.0350964 C6.3452381,29.7285638 8.27549206,28.5241478 10.8656508,28.5185524 C13.5326032,28.5185524 15.5630794,29.8096975 16.9909206,31.1735832 C17.6937778,31.8506301 18.2456508,32.5318735 18.5970794,33.0396587 C18.7793016,33.2956495 18.9068571,33.5054781 18.9927619,33.6383695 C19.0318095,33.7097112 19.0643492,33.7642667 19.0812698,33.7992381 C19.0877778,33.8132267 19.0968889,33.8244175 19.0968889,33.8286141 L19.0968889,33.8286141 L19.0968889,33.8286141 L19.1033968,33.8286141 L21.692254,33.8034347 L21.692254,33.8034347 L21.6948571,33.7978392 L21.6948571,33.7922438 C21.7534286,33.6775375 22.505746,32.312253 23.8554921,31.0322987 C25.2481905,29.7257661 27.1810476,28.5213501 29.766,28.5157547 C32.4329524,28.5157547 34.4582222,29.8068998 35.8925714,31.1707855 C36.6019365,31.8478324 37.1381905,32.5290758 37.4935238,33.036861 C37.6770476,33.2928518 37.8059048,33.5026804 37.8931111,33.6355718 C37.9360635,33.7069135 37.9620952,33.761469 37.981619,33.7964404 C37.9920317,33.810429 37.9972381,33.8216198 37.9972381,33.8258164 L37.9998413,33.8258164 L37.9998413,33.8258164 L40.7813333,33.0312655 L40.7813333,8.01969981 L40.5834921,7.22514895 L40.5834921,7.22514895 Z M10.8656508,25.3235627 L10.8630476,25.3235627 C7.36307937,25.3235627 4.71044444,26.9923992 2.97933333,28.6472472 L2.97933333,8.47013181 C3.28520635,7.9679421 3.95292063,6.97475352 4.95904762,6.01793524 C6.3452381,4.71420038 8.27549206,3.50978438 10.8656508,3.50978438 C13.5326032,3.50978438 15.5630794,4.80232838 16.9909206,6.16061867 C17.6937778,6.83626667 18.2456508,7.52590324 18.5970794,8.03368838 C18.7233333,8.20714667 18.8248571,8.36521752 18.8964444,8.48551924 L18.8964444,28.7227855 C17.1393016,27.0469547 14.4254921,25.3235627 10.8656508,25.3235627 L10.8656508,25.3235627 Z M37.802,28.7227855 C36.0331429,27.044157 33.3258413,25.3235627 29.766,25.3235627 C26.2673333,25.3179672 23.6133968,26.9923992 21.8757778,28.6472472 L21.8757778,8.47013181 C22.1829524,7.97213867 22.8519683,6.97475352 23.8554921,6.01793524 C25.2481905,4.71420038 27.1810476,3.50978438 29.766,3.50978438 C32.4329524,3.50978438 34.4582222,4.80232838 35.8925714,6.16061867 C36.6019365,6.83626667 37.1381905,7.52590324 37.4935238,8.03368838 C37.6210794,8.20714667 37.7226032,8.36521752 37.8006984,8.48551924 L37.802,28.7227855 L37.802,28.7227855 L37.802,28.7227855 Z" id="Shape"></path>
                        </g>
                    </g>
                </g>
            </g>
        </g>
    </g>
</svg>