<?xml version="1.0" encoding="UTF-8" standalone="no"?>
<svg width="108px" height="78px" viewBox="0 0 108 78" version="1.1" xmlns="http://www.w3.org/2000/svg" xmlns:xlink="http://www.w3.org/1999/xlink">
    <!-- Generator: Sketch 3.6.1 (26313) - http://www.bohemiancoding.com/sketch -->
    <title>Group 4</title>
    <desc>Created with Sketch.</desc>
    <defs></defs>
    <g id="Guías-de-Estudio" stroke="none" stroke-width="1" fill="none" fill-rule="evenodd">
        <g id="Guía-Estudio---02-Copy" transform="translate(-679.000000, -697.000000)">
            <g id="Group-4" transform="translate(679.000000, 697.000000)">
                <g id="Capa_1" transform="translate(0.000000, 16.529503)">
                    <g id="Group">
                        <g id="c53_book"></g>
                    </g>
                </g>
                <path d="M72.5418476,22.8530349 C69.1705917,19.7539669 63.9266928,16.5295031 57.0245948,16.5295031 C50.1224969,16.5295031 44.9309622,19.7642033 41.6120704,22.8811849 C40.5897221,23.8434059 39.7319469,24.7928313 39.0212902,25.6603656 C38.2956722,24.7877131 37.3980005,23.8280513 36.3482233,22.8530349 C32.9620062,19.7539669 27.7230944,16.5295031 20.8160093,16.5295031 C13.9139114,16.5295031 8.72736377,19.7642033 5.408472,22.8811849 C2.07461904,26.0058439 0.451329383,29.0511708 0.354081616,29.2277486 L0,30.6301344 L0,76.3919291 L3.91827717,77.840379 C3.99058962,77.6817149 5.56187251,75.352936 8.19005577,72.983211 C10.8456679,70.5930133 15.8538797,68.1413964 20.8160093,68.13116 C25.9252574,68.13116 29.8151682,70.4932077 32.5505733,72.9883284 C33.7679264,74.1081275 37.4437332,77.840378 37.4312639,77.840379 C37.4437316,77.86597 41.5572127,77.7994331 41.5572127,77.7994331 C41.6744087,77.5691143 43.1156705,75.0714344 45.7014637,72.7298595 C48.3695435,70.3396618 52.0724393,68.1362782 57.0245948,68.1260418 C62.1338429,68.1260418 66.0137795,70.4880895 68.7616523,72.9832102 C70.1206276,74.2218138 72.726369,77.7226602 72.763772,77.7866376 C72.7837203,77.8122286 78.1273604,76.3868109 78.1273604,76.3868109 L78.1273604,30.6301344 L77.7483435,29.1765666 C77.6411216,29.005107 75.9455195,25.9700165 72.5418476,22.8530349 Z M4.11692491,72.4462324 L4.11692491,30.0874158 C4.76404352,29.0331441 6.17668968,26.9480942 8.30529685,24.9393982 C11.2379833,22.2024031 15.3217148,19.673913 20.8015703,19.673913 C26.4438938,19.673913 30.7396599,22.3874146 33.7604646,25.2389406 C35.2474606,26.6573619 36.4150278,28.10515 37.1585258,29.1711685 C37.4256343,29.5353181 37.6404226,29.867164 37.7918759,30.1197194 L37.7918759,72.6048137 C34.074386,69.086659 28.3329294,65.468657 20.8015703,65.468657 C13.3913738,65.468657 7.77934087,68.9721281 4.11692491,72.4462324 Z M74.537685,72.6048137 C70.7954118,69.0807857 65.0677237,65.468657 57.5363646,65.468657 C50.1344292,65.4569102 44.5196426,68.9721281 40.8434581,72.4462324 L40.8434581,30.0874158 C41.4933304,29.0419542 42.9087303,26.9480942 45.0318301,24.9393982 C47.978285,22.2024031 52.0675239,19.673913 57.5363646,19.673913 C63.1786881,19.673913 67.4634394,22.3874146 70.4980126,25.2389406 C71.9987771,26.6573619 73.1332999,28.10515 73.885059,29.1711685 C74.1549212,29.5353181 74.3697095,29.867164 74.5349313,30.1197194 L74.537685,72.6048137 L74.537685,72.6048137 L74.537685,72.6048137 Z" id="Shape" fill="#9D9C9C"></path>
                <path d="M78.461446,51.6420807 C92.783798,51.6420807 104.394358,40.0816072 104.394358,25.8210404 C104.394358,11.5604736 92.783798,0 78.461446,0 C64.1390941,0 52.5285338,11.5604736 52.5285338,25.8210404 C52.5285338,40.0816072 64.1390941,51.6420807 78.461446,51.6420807 Z" id="Oval-2" fill="#FFFFFF"></path>
                <path d="M106.807033,52.9913712 L93.6467861,40.0972882 C97.0930317,36.3691944 99.2105179,31.4387331 99.2105179,26.0132769 C99.2088522,14.4072256 89.6078709,5 77.7635569,5 C65.9192429,5 56.3182616,14.4072256 56.3182616,26.0132769 C56.3182616,37.6193282 65.9192429,47.0265537 77.7635569,47.0265537 C82.8811208,47.0265537 87.5748376,45.2640932 91.261699,42.3340118 L104.473001,55.2789294 C105.116726,55.9103402 106.16181,55.9103402 106.805534,55.2789294 C107.450758,54.6476015 107.450758,53.622782 106.807033,52.9913712 L106.807033,52.9913712 Z M77.7635569,43.7935378 C67.7419768,43.7935378 59.6179222,35.8330673 59.6179222,26.0132769 C59.6179222,16.1934864 67.7419768,8.23301596 77.7635569,8.23301596 C87.7852203,8.23301596 95.9091916,16.1934864 95.9091916,26.0132769 C95.9091916,35.8330673 87.7852203,43.7935378 77.7635569,43.7935378 L77.7635569,43.7935378 Z" id="Shape" fill="#9D9C9C"></path>
            </g>
        </g>
    </g>
</svg>