<?xml version="1.0" encoding="UTF-8" standalone="no"?>
<svg width="20px" height="20px" viewBox="0 0 20 20" version="1.1" xmlns="http://www.w3.org/2000/svg" xmlns:xlink="http://www.w3.org/1999/xlink">
    <!-- Generator: Sketch 3.6.1 (26313) - http://www.bohemiancoding.com/sketch -->
    <title>Fill 1</title>
    <desc>Created with Sketch.</desc>
    <defs></defs>
    <g id="HOME" stroke="none" stroke-width="1" fill="none" fill-rule="evenodd">
        <g id="Home-LG-2" transform="translate(-1185.000000, -3080.000000)" fill="#E7BB00">
            <g id="Group-28-Copy-9" transform="translate(835.000000, 3008.000000)">
                <g id="Group-26" transform="translate(350.000000, 72.000000)">
                    <path d="M10.6178431,9.89607843 L10.6178431,4.23173203 C10.6178431,3.89277778 10.3225163,3.61937908 9.98352941,3.61937908 C9.66650327,3.61937908 9.38212418,3.89277778 9.38212418,4.23173203 L9.38212418,9.98352941 C9.38212418,9.9945098 9.40405229,10.038366 9.40405229,10.0710458 C9.38212418,10.2679085 9.43696078,10.4319281 9.5680719,10.563268 L12.8377778,13.8327451 C13.0565686,14.0515359 13.4610784,14.0515359 13.6797059,13.8327451 C13.9311438,13.5812745 13.9146078,13.2164052 13.6797059,12.9798366 L10.6178431,9.89607843 Z M17.6053595,14.4014706 C16.8203595,15.7477124 15.7449346,16.815719 14.3904902,17.6053595 C13.0442484,18.3903595 11.569183,18.7862418 9.98379085,18.7862418 C8.79196078,18.7862418 7.65470588,18.5566993 6.57202614,18.0864052 C5.48937908,17.6163399 4.55460784,16.998366 3.77264706,16.216634 C2.99068627,15.4346732 2.36830065,14.4907843 1.9029085,13.4062745 C1.43888889,12.325719 1.21401961,11.1756209 1.21401961,9.98356209 C1.21401961,8.39794118 1.60359477,6.93035948 2.38418301,5.58784314 C3.16754902,4.24042484 4.24320261,3.17127451 5.5880719,2.38392157 C6.93271242,1.59660131 8.39820261,1.20281046 9.98356209,1.20281046 C11.569183,1.20281046 13.0439869,1.59892157 14.3902614,2.38392157 C15.7447059,3.17359477 16.8178105,4.24271242 17.6051307,5.58781046 C18.392451,6.93267974 18.7860131,8.39794118 18.7860131,9.98352941 C18.7860131,11.569183 18.3950327,13.0467647 17.6053595,14.4014706 M19.2016993,6.10173203 C18.1472549,3.64339869 16.3554248,1.85552288 13.8765686,0.798300654 C12.6376144,0.269901961 11.3396078,0 9.98356209,0 C8.6277451,0 7.33931373,0.267352941 6.10173203,0.798300654 C3.64339869,1.85271242 1.84362745,3.63944444 0.787320261,6.10173203 C0.258006536,7.3353268 0,8.62771242 0,9.98352941 C0,11.3396078 0.258006536,12.6427124 0.787320261,13.8765686 C1.84362745,16.3388562 3.64362745,18.1363072 6.10173203,19.1909804 C7.33954248,19.7219281 8.62771242,19.9890196 9.98356209,19.9890196 C11.3394118,19.9890196 12.6376144,19.7191176 13.8763725,19.1909804 C16.3552288,18.1337255 18.1470588,16.3346732 19.201732,13.8765686 C19.7326471,12.6387582 20,11.3396078 20,9.98352941 C20,8.62771242 19.7328758,7.3395098 19.2016993,6.10173203" id="Fill-1"></path>
                </g>
            </g>
        </g>
    </g>
</svg>