<?xml version="1.0" encoding="UTF-8" standalone="no"?>
<svg width="70px" height="80px" viewBox="0 0 70 80" version="1.1" xmlns="http://www.w3.org/2000/svg" xmlns:xlink="http://www.w3.org/1999/xlink">
    <!-- Generator: Sketch 3.6.1 (26313) - http://www.bohemiancoding.com/sketch -->
    <title>Combined Shape</title>
    <desc>Created with Sketch.</desc>
    <defs></defs>
    <g id="HOME" stroke="none" stroke-width="1" fill="none" fill-rule="evenodd">
        <g id="Home-LG-2" transform="translate(-979.000000, -1129.000000)" fill="#257FA7">
            <g id="Group-20" transform="translate(0.000000, 988.000000)">
                <g id="Group-23-Copy">
                    <g id="food" transform="translate(979.000000, 141.000000)">
                        <g id="Capa_1">
                            <g id="Group">
                                <path d="M67.0136547,40.4306869 C67.0117577,39.6423044 66.9836815,30.1870641 66.7067135,20.8487628 C66.5374975,15.1351868 66.3087143,10.5780071 66.0279523,7.30295214 C65.8564598,5.29779306 65.6694116,3.79898729 65.4558048,2.72169676 C65.2676183,1.77051686 64.9174245,0 63.4722588,0 C63.372095,0 63.2715519,0.0103181427 63.1732851,0.0309544282 C62.3818397,0.196426865 61.6412349,0.722269991 59.9426245,5.74682335 C58.9155665,8.78494315 57.7868272,12.7673641 56.765081,16.9607337 C55.5513542,21.9382822 52.8002655,34.2229865 53.4668857,40.7688927 C53.8656437,44.684819 55.523278,45.506831 56.8428596,45.506831 C56.8679006,45.506831 60.4707607,45.5202064 60.7621461,45.5270851 C60.6767793,48.6802331 60.1228434,53.2633993 59.5848426,57.7143403 C58.8552406,63.7496895 58.1005978,69.9902551 58.3559395,73.6436419 C58.6367015,77.6684819 61.3092527,79.0965893 63.5120966,79.0965893 C65.0904347,79.0965893 66.7021606,78.4190312 67.8233118,77.2836534 C68.8272258,76.2678896 69.3758501,74.9494602 69.3690207,73.5717971 C69.3462562,69.0283749 67.157071,42.184389 67.0136547,40.4306869 L67.0136547,40.4306869 Z M66.0082231,75.4638387 C65.3670232,76.1131174 64.4105352,76.5166714 63.5124761,76.5166714 C61.9720788,76.5166714 61.0478405,75.4317378 60.9108742,73.4625012 C60.6729852,70.0559855 61.4124518,63.9400019 62.1276362,58.0254132 C62.7813565,52.6171778 63.3994124,47.5081685 63.3296013,44.2227955 C63.3148044,43.5211617 62.7456921,42.9605427 62.0494781,42.9605427 C61.078952,42.9605427 57.6168523,42.9070412 56.8439979,42.9269132 C56.6880611,42.9269132 56.5400919,42.6651381 56.4429634,42.445782 C55.308533,39.8670106 56.0813874,31.6381007 58.4602767,20.968759 C60.1004583,13.6126875 61.9531084,7.49326455 63.147106,4.40546479 C63.4859175,6.85468616 63.9051635,11.9044616 64.1870638,22.3120283 C64.436335,31.5024362 64.4534083,40.3989682 64.4534083,40.4876278 C64.4534083,40.5227859 64.454926,40.5571797 64.4579612,40.5915735 C64.4811051,40.8758957 66.7863892,69.0868444 66.8087743,73.5847903 C66.8129478,74.4641253 66.3754902,75.0916213 66.0082231,75.4638387 Z M48.8794613,7.33658164 C48.8794613,6.62424764 48.3061756,6.0468138 47.5989587,6.0468138 C46.8917419,6.0468138 46.3184561,6.62424764 46.3184561,7.33658164 C46.3184561,11.6923665 46.4098935,15.8440814 46.4834987,19.1795166 C46.5013309,20.0053501 46.5184042,20.7639247 46.5316835,21.4514187 L43.4193982,21.4972772 L43.4193982,7.9671348 C43.4193982,7.2548008 42.8461125,6.67736696 42.1388956,6.67736696 C41.4320582,6.67736696 40.858393,7.2548008 40.858393,7.9671348 L40.858393,21.5354925 L37.935053,21.5786758 L37.935053,7.9671348 C37.935053,7.2548008 37.3613878,6.67736696 36.6545504,6.67736696 C35.9473335,6.67736696 35.3740477,7.2548008 35.3740477,7.9671348 L35.3740477,21.6168912 L32.5292452,21.6589281 L32.5292452,6.9043661 C32.5292452,6.1920321 31.9559594,5.61459826 31.2487426,5.61459826 C30.5415257,5.61459826 29.96824,6.1920321 29.96824,6.9043661 L29.96824,23.960256 C29.96824,28.3408809 33.3096878,31.2903411 38.5971202,31.7267603 L38.5971202,42.6292156 C37.6721231,42.6433553 37.1675102,42.6578771 37.158025,42.6582593 C36.5384515,42.6766027 36.0205593,43.1390083 35.9295013,43.7565683 C35.0466185,49.6952326 33.1628569,65.2683672 33.3165172,72.8575523 C33.410231,77.462119 36.4045204,79.095825 38.9401052,79.095825 C41.8862098,79.095825 45.16202,76.9148753 45.319095,73.3918028 C45.5156284,68.9790771 44.3527423,53.1716824 43.856097,46.4217063 C43.7661773,45.1923187 43.6982632,44.2766791 43.6667723,43.8051017 C43.6216228,43.1279259 43.0631339,42.6017006 42.389305,42.6017006 C41.9548826,42.6017006 41.5447424,42.6032292 41.1592637,42.6047578 L41.1592637,31.7179708 C45.9109717,31.1902169 49.1298707,27.5150473 49.1298707,24.1895481 C49.1298707,23.0056368 49.0926887,21.2920608 49.0445039,19.1225757 C48.9701399,15.7993694 48.8794613,11.6640871 48.8794613,7.33658164 Z M41.3004035,46.6124009 C41.7940136,53.3165186 42.9493115,69.0176746 42.7596074,73.2763925 C42.6734817,75.2146747 40.7142179,76.5162893 38.938967,76.5162893 C37.0400291,76.5162893 35.9238102,75.1634661 35.8756254,72.8048151 C35.7413149,66.1522881 37.3135824,52.2086558 38.3049759,45.2137193 C38.9788049,45.2026369 39.9565397,45.1896436 41.1956869,45.1846756 C41.2256601,45.5928155 41.2609451,46.0728002 41.3004035,46.6124009 Z M39.9868924,29.2053119 C36.4693992,29.2053119 32.7185699,27.8926149 32.5372128,24.2384637 L46.5673479,24.0309544 C46.5673479,24.0848381 46.5681067,24.1383395 46.5681067,24.1899303 C46.5677273,26.5088373 43.6929515,29.2053119 39.9868924,29.2053119 Z M0.23857377,19.3136524 C0.23857377,23.1638483 1.46747687,26.6666667 3.69953519,29.1766504 C5.58329681,31.2956912 8.06007341,32.5995987 10.7827065,32.9400974 L10.7827065,43.5333907 C9.85732997,43.5475303 9.35309649,43.56167 9.34361129,43.5624343 C8.72403773,43.5807777 8.20614556,44.0431833 8.11470819,44.6603611 C7.23182536,50.5994077 5.34806374,66.1721601 5.50172405,73.7613452 C5.59543787,78.3659119 8.58972723,80 11.1253121,80 C14.0710372,80 17.3476063,77.8190503 17.5046813,74.2959778 C17.7008353,69.8832521 16.5379492,54.0758575 16.0413039,47.3254992 C15.9510048,46.0964937 15.8834701,45.180472 15.8519792,44.7092768 C15.8068296,44.0321009 15.2483408,43.5058756 14.5745119,43.5058756 C14.1400895,43.5058756 13.7299493,43.5070221 13.3440911,43.509315 L13.3440911,32.9767842 C16.1904113,32.7004872 18.7851839,31.3770899 20.7414124,29.1770326 C22.9730914,26.6666667 24.2023739,23.1642304 24.2023739,19.3140346 C24.2012356,11.1798987 18.8265394,4.56252986 12.2199047,4.56252986 C5.61327006,4.56252986 0.23857377,11.1798987 0.23857377,19.3136524 Z M13.4867486,47.5165759 C13.9799793,54.2206936 15.1352772,69.9214675 14.9459525,74.1801853 C14.8598268,76.1184676 12.900563,77.4204643 11.1253121,77.4204643 C9.22675357,77.4204643 8.11015529,76.0676412 8.06197045,73.7089902 C7.92728055,67.0564632 9.49992746,53.1124486 10.491321,46.1178943 C11.1655294,46.1064297 12.1425054,46.0938187 13.382032,46.0884685 C13.4116258,46.4969905 13.4469108,46.9765931 13.4867486,47.5165759 Z M2.79957899,19.3136524 C2.79957899,12.6022738 7.02542731,7.14206554 12.2199047,7.14206554 C17.4143821,7.14206554 21.6406098,12.6022738 21.6406098,19.3136524 C21.6402304,25.7682239 17.6784502,30.4534251 12.2199047,30.4534251 C6.76135921,30.4534251 2.79957899,25.7686061 2.79957899,19.3136524 Z" id="Combined-Shape"></path>
                            </g>
                        </g>
                    </g>
                </g>
            </g>
        </g>
    </g>
</svg>