<?xml version="1.0" encoding="UTF-8" standalone="no"?>
<svg width="53px" height="80px" viewBox="0 0 53 80" version="1.1" xmlns="http://www.w3.org/2000/svg" xmlns:xlink="http://www.w3.org/1999/xlink">
    <!-- Generator: Sketch 3.6.1 (26313) - http://www.bohemiancoding.com/sketch -->
    <title>reglamento</title>
    <desc>Created with Sketch.</desc>
    <defs></defs>
    <g id="HOME" stroke="none" stroke-width="1" fill="none" fill-rule="evenodd">
        <g id="Home-LG-2" transform="translate(-1193.000000, -1134.000000)" fill="#257FA7">
            <g id="Group-20" transform="translate(0.000000, 988.000000)">
                <g id="Group-23-Copy">
                    <g id="Group-9" transform="translate(135.000000, 116.000000)">
                        <g id="Group" transform="translate(1000.000000, 0.000000)">
                            <path d="M60.2064204,30 C58.9881086,30 58,30.9881086 58,32.2064204 L58,107.79358 C58,108.64011 58.4843093,109.412357 59.2469953,109.780461 C59.5522168,109.927924 59.8798702,110 60.2060527,110 C60.6951425,110 61.180555,109.83746 61.5780784,109.521575 L85.661525,90.4022062 C86.6161695,89.6443008 86.7753995,88.2568301 86.0178619,87.3021855 C85.2603242,86.3479087 83.8724857,86.1886787 82.9178412,86.9458486 L62.4124731,103.224451 L62.4124731,34.4128408 L106.173145,34.4128408 L106.173145,103.225554 L96.3284644,95.4122515 C95.3745553,94.6547138 93.9863492,94.8146793 93.2284438,95.7689561 C92.4709061,96.7236007 92.6308716,98.1114391 93.5855161,98.8689768 L107.008275,109.521942 C107.670569,110.047806 108.57704,110.148566 109.339358,109.780461 C110.101676,109.412357 110.586353,108.64011 110.586353,107.79358 L110.586353,32.2064204 C110.586353,30.9881086 109.598612,30 108.379933,30 L60.2064204,30 Z M90.9124378,56.1324756 L67.9288918,56.1324756 C66.71058,56.1324756 65.7224714,57.1205842 65.7224714,58.338896 C65.7224714,59.5572078 66.71058,60.5453164 67.9288918,60.5453164 L90.9124378,60.5453164 C92.1307496,60.5453164 93.1188582,59.5572078 93.1188582,58.338896 C93.1188582,57.1205842 92.1311173,56.1324756 90.9124378,56.1324756 Z M67.9288918,51.8468717 L100.657461,51.8468717 C101.875773,51.8468717 102.863882,50.8587631 102.863882,49.6404513 C102.863882,48.4221395 101.875773,47.4340309 100.657461,47.4340309 L67.9288918,47.4340309 C66.71058,47.4340309 65.7224714,48.4221395 65.7224714,49.6404513 C65.7224714,50.8587631 66.71058,51.8468717 67.9288918,51.8468717 Z M67.9288918,43.148427 L100.657461,43.148427 C101.875773,43.148427 102.863882,42.1603184 102.863882,40.9420066 C102.863882,39.7236948 101.875773,38.7355861 100.657461,38.7355861 L67.9288918,38.7355861 C66.71058,38.7355861 65.7224714,39.7236948 65.7224714,40.9420066 C65.7224714,42.1603184 66.71058,43.148427 67.9288918,43.148427 Z" id="reglamento"></path>
                        </g>
                    </g>
                </g>
            </g>
        </g>
    </g>
</svg>