<?xml version="1.0" encoding="UTF-8" standalone="no"?>
<svg width="50px" height="36px" viewBox="0 0 50 36" version="1.1" xmlns="http://www.w3.org/2000/svg" xmlns:xlink="http://www.w3.org/1999/xlink">
    <!-- Generator: Sketch 3.6.1 (26313) - http://www.bohemiancoding.com/sketch -->
    <title>Shape</title>
    <desc>Created with Sketch.</desc>
    <defs></defs>
    <g id="Galería-Multimedia" stroke="none" stroke-width="1" fill="none" fill-rule="evenodd">
        <g id="Galería-Multimedia-LG---Seleccionado" transform="translate(-673.000000, -396.000000)" fill="#1A3760">
            <g id="technology" transform="translate(673.000000, 396.000000)">
                <g id="Capa_1">
                    <path d="M2.86945701,35.9779592 L47.0764706,35.9779592 C48.6585973,35.9779592 49.9459276,34.9330408 49.9459276,33.6484286 L49.9459276,7.66010204 C49.9459276,6.3754898 48.6588235,5.33057143 47.0764706,5.33057143 L38.138009,5.33057143 L36.8920814,1.53734694 C36.6257919,0.727346939 35.718552,0.161632653 34.6859729,0.161632653 L15.2595023,0.161632653 C14.2266968,0.161632653 13.3196833,0.727346939 13.0531674,1.53771429 L11.8072398,5.33057143 L2.86945701,5.33057143 C1.28710407,5.33057143 0,6.3754898 0,7.66010204 L0,33.6484286 C0,34.9328571 1.28710407,35.9779592 2.86945701,35.9779592 L2.86945701,35.9779592 Z M16.1126697,2.91673469 L33.8330317,2.91673469 L34.6260181,5.33057143 L15.3196833,5.33057143 L16.1126697,2.91673469 L16.1126697,2.91673469 Z M3.39366516,8.08567347 L46.5520362,8.08567347 L46.5520362,33.2228571 L3.39366516,33.2228571 L3.39366516,8.08567347 L3.39366516,8.08567347 Z M24.8818825,9.75728571 C18.8130325,9.75728571 13.8758076,14.6457551 13.8758076,20.654449 C13.8758076,26.6631429 18.8130325,31.5516122 24.8818825,31.5516122 C30.9507326,31.5516122 35.8879575,26.6631429 35.8879575,20.654449 C35.8879575,14.6457551 30.9507326,9.75728571 24.8818825,9.75728571 L24.8818825,9.75728571 Z M24.8818825,28.7963265 C20.3475904,28.7963265 16.6584924,25.1437959 16.6584924,20.6542653 C16.6584924,16.1647347 20.3475904,12.5122041 24.8818825,12.5122041 C29.4161747,12.5122041 33.1052727,16.1647347 33.1052727,20.6542653 C33.1052727,25.1437959 29.4161747,28.7963265 24.8818825,28.7963265 L24.8818825,28.7963265 Z M41.9341629,9.71044898 C40.6242081,9.71044898 39.5585973,10.5757347 39.5585973,11.6392041 C39.5585973,12.7024898 40.6242081,13.5675918 41.9341629,13.5675918 C43.2445701,13.5675918 44.310181,12.7024898 44.310181,11.6392041 C44.310181,10.5757347 43.2445701,9.71044898 41.9341629,9.71044898 L41.9341629,9.71044898 Z" id="Shape"></path>
                </g>
            </g>
        </g>
    </g>
</svg>