<?xml version="1.0" encoding="UTF-8" standalone="no"?>
<svg width="80px" height="80px" viewBox="0 0 80 80" version="1.1" xmlns="http://www.w3.org/2000/svg" xmlns:xlink="http://www.w3.org/1999/xlink">
    <!-- Generator: Sketch 3.6.1 (26313) - http://www.bohemiancoding.com/sketch -->
    <title>Shape</title>
    <desc>Created with Sketch.</desc>
    <defs></defs>
    <g id="HOME" stroke="none" stroke-width="1" fill="none" fill-rule="evenodd">
        <g id="Home-LG-2" transform="translate(-780.000000, -1134.000000)" fill="#257FA7">
            <g id="Group-20" transform="translate(0.000000, 988.000000)">
                <g id="Group-23-Copy">
                    <g id="Group-9" transform="translate(135.000000, 116.000000)">
                        <g id="pen" transform="translate(645.000000, 30.000000)">
                            <g id="Capa_1">
                                <path d="M78.046788,12.6203317 L67.3803229,1.97123865 C66.0572766,0.650347179 64.408461,0 62.6578425,0 C60.907224,0 59.1362449,0.660510889 57.9352316,1.97123865 L50.7903641,9.10446959 C49.3655149,8.66756033 47.7166993,8.99266877 46.617489,9.9782881 L43.5438242,13.0469469 C42.3326306,14.2561679 42.118975,16.1156057 42.7702526,17.6602291 L8.24679774,52.1275871 C8.13481454,52.239388 8.02283134,52.3511888 8.02283134,52.4526956 C8.02283134,52.4526956 8.02283134,52.4526956 8.02283134,52.5644964 C7.91084814,52.6762972 7.91084814,52.788098 7.79886494,52.8896048 L7.79886494,52.8896048 L1.6515354,71.5560413 L1.6515354,71.5560413 L0.989947009,73.52728 L0.328358614,75.4985186 C0.328358614,75.6103194 0.328358614,75.7221202 0.216375413,75.7221202 C-0.00759098745,76.8195404 0.216375413,77.6933589 0.542014207,78.242069 C0.653997407,78.4656706 0.765980608,78.6789782 0.867653001,78.790779 C1.5292414,79.5630907 2.51646858,80 3.61567897,80 L3.61567897,80 L3.94131777,80 L4.37893976,80 L4.37893976,80 L4.37893976,80 C4.49092296,80 4.60290616,80 4.60290616,79.8881992 L7.35093213,79.0143807 L27.1367191,72.5416606 L27.1367191,72.5416606 C27.4623579,72.4298598 27.6863243,72.318059 27.9102907,72.1047514 L62.5355485,37.5358865 C62.9731705,37.7594882 63.4107925,37.7594882 63.9603977,37.7594882 C65.0596081,37.7594882 66.0468353,37.3225789 66.8204069,36.5502672 L69.8940716,33.4816084 C71.1052652,32.2723874 71.3189208,30.6262572 70.7693156,29.2037286 L77.9141831,22.0704977 C80.6828307,19.540255 80.6828307,15.2520812 78.046788,12.6203317 L78.046788,12.6203317 Z M26.7095385,67.7150708 L21.1116836,62.1161693 L53.9761426,29.1934346 L59.5841777,34.7923362 L26.7095385,67.7150708 L26.7095385,67.7150708 Z M51.1161334,26.3380835 L18.2516744,59.2608181 L12.6436393,53.5602794 L45.5080983,20.7493456 L51.1161334,26.3380835 L51.1161334,26.3380835 Z M8.68441973,74.2995917 L5.93639376,71.5560413 L10.6590046,57.2895794 L16.816645,63.437191 L16.816645,63.437191 L16.816645,63.437191 L22.9742853,69.5848026 L8.68441973,74.2995917 L8.68441973,74.2995917 Z M64.7442801,33.146206 C64.6322969,33.0344051 64.6322969,32.9226043 64.5203137,32.9226043 L47.4825527,15.8007913 C47.2585863,15.5771896 47.1569139,15.4756828 46.9329475,15.363882 L49.3553346,12.8439333 L49.579301,13.0675349 L49.579301,13.0675349 L66.8410285,30.3011488 C66.9530117,30.4129496 67.0649949,30.5247504 67.1666673,30.5247504 L64.7442801,33.146206 L64.7442801,33.146206 Z M75.1867788,19.3166533 L68.2657471,26.2264129 L53.8641594,11.7465131 L60.785191,4.83675354 C61.7724182,3.85113421 63.533217,3.85113421 64.5204442,4.83675354 L75.1869093,15.4756828 C76.174006,16.573103 76.174006,18.2192332 75.1867788,19.3166533 L75.1867788,19.3166533 Z" id="Shape"></path>
                            </g>
                        </g>
                    </g>
                </g>
            </g>
        </g>
    </g>
</svg>