<?xml version="1.0" encoding="UTF-8" standalone="no"?>
<svg width="76px" height="80px" viewBox="0 0 76 80" version="1.1" xmlns="http://www.w3.org/2000/svg" xmlns:xlink="http://www.w3.org/1999/xlink">
    <!-- Generator: Sketch 3.6.1 (26313) - http://www.bohemiancoding.com/sketch -->
    <title>calendario</title>
    <desc>Created with Sketch.</desc>
    <defs></defs>
    <g id="HOME" stroke="none" stroke-width="1" fill="none" fill-rule="evenodd">
        <g id="Home-LG-2" transform="translate(-382.000000, -1134.000000)" fill="#257FA7">
            <g id="Group-20" transform="translate(0.000000, 988.000000)">
                <g id="Group-23-Copy">
                    <g id="Group-9" transform="translate(135.000000, 116.000000)">
                        <g id="Group-6" transform="translate(200.000000, 0.000000)">
                            <path d="M96.2009476,76.0302986 C97.495153,76.0302986 98.6084986,75.6514193 99.543333,74.8889543 C100.478167,74.1288425 100.945585,73.0369172 100.945585,71.6155317 C100.945585,70.5306663 100.572121,69.5987645 99.8275415,68.8151199 C99.0829623,68.0338285 98.0776629,67.6431828 96.8116434,67.6431828 C95.9543204,67.6431828 95.2473225,67.7632005 94.6929985,68.0008825 C94.1386746,68.2409178 93.6994433,68.5586116 93.3753047,68.9516105 C93.0511662,69.3446095 92.7458182,69.8529195 92.4569121,70.4718341 C92.168006,71.0931019 91.904937,71.6767172 91.6653563,72.2250331 C91.5244265,72.5215473 91.2707528,72.7545227 90.9066841,72.9216061 C90.5402666,73.0910428 90.119826,73.1757611 89.6406646,73.1757611 C89.0792942,73.1757611 88.5625515,72.9474923 88.0904367,72.4886013 C87.6206706,72.0320635 87.3834387,71.4225621 87.3834387,70.6624504 C87.3834387,69.930578 87.6042288,69.1586998 88.0481577,68.349169 C88.4920866,67.5396382 89.1380149,66.76776 89.9882915,66.0358876 C90.8385681,65.3040153 91.8978905,64.7156935 93.1615612,64.2709222 C94.4252319,63.8261509 95.8392277,63.6049419 97.398851,63.6049419 C98.7611725,63.6049419 100.006053,63.7908516 101.131142,64.1650243 C102.256232,64.5391969 103.233345,65.0757464 104.062482,65.7817326 C104.89162,66.4853655 105.516408,67.3019562 105.939198,68.2315046 C106.361987,69.1610531 106.571033,70.1612002 106.571033,71.2319459 C106.571033,72.6415649 106.265685,73.8488013 105.654989,74.8536549 C105.044294,75.8608619 104.16818,76.844536 103.028997,77.7999706 C104.125901,78.3906457 105.048991,79.0683924 105.800617,79.8285042 C106.552243,80.588616 107.118311,81.4310928 107.498821,82.3535814 C107.879332,83.27607 108.067238,84.2715105 108.067238,85.3422562 C108.067238,86.6224445 107.811216,87.8626269 107.296822,89.0604501 C106.782428,90.2582733 106.028453,91.3243124 105.030201,92.2609207 C104.031948,93.197529 102.848137,93.9294014 101.47642,94.4565377 C100.107052,94.9860274 98.5920568,95.2495955 96.9337826,95.2495955 C95.2473225,95.2495955 93.7346758,94.9483748 92.4005402,94.3412267 C91.0640558,93.7364318 89.9648032,92.9786733 89.1004337,92.0703045 C88.2360641,91.1619356 87.5830893,90.222974 87.1391604,89.2510663 C86.6952315,88.2791587 86.4744414,87.4766877 86.4744414,86.8436535 C86.4744414,86.0270628 86.7375104,85.3681424 87.2659972,84.8692455 C87.794484,84.3703486 88.4498077,84.1185468 89.2390147,84.1185468 C89.6312693,84.1185468 90.0117798,84.2338579 90.3758485,84.4668334 C90.742266,84.6998088 90.9794979,84.9774967 91.0922417,85.299897 C91.8227279,87.257832 92.6072372,88.7121636 93.4434208,89.6628916 C94.2796044,90.6136196 95.4563684,91.0889837 96.9760615,91.0889837 C97.8474776,91.0889837 98.6883588,90.8748345 99.4963564,90.444183 C100.304354,90.0158847 100.971422,89.3781438 101.499909,88.5333137 C102.028395,87.6884836 102.291464,86.7095161 102.291464,85.5964112 C102.291464,83.9491102 101.842838,82.6571555 100.943236,81.7205471 C100.043634,80.7839388 98.7917073,80.3156347 97.1898051,80.3156347 C96.9079455,80.3156347 96.4734119,80.3438741 95.8838555,80.400353 C95.2942991,80.4568319 94.9137886,80.4850713 94.7446728,80.4850713 C93.9719076,80.4850713 93.3753047,80.2921018 92.9525153,79.9038094 C92.5297259,79.5178703 92.32068,78.9789675 92.32068,78.287101 C92.32068,77.6117076 92.5743536,77.065745 93.0793521,76.6492131 C93.5843506,76.2326813 94.3383252,76.025592 95.336578,76.025592 L96.2009476,76.025592 L96.2009476,76.0302986 Z M68.3485183,89.7405501 L79.3551369,89.7405501 C80.4520406,89.7405501 81.2882242,89.9664657 81.8636876,90.4159435 C82.439151,90.8677747 82.7280572,91.4796294 82.7280572,92.2538609 C82.7280572,92.9457273 82.5002206,93.5293426 82.0445475,94.0070599 C81.5865256,94.4871305 80.8959695,94.7248125 79.9681816,94.7248125 L64.4471112,94.7248125 C63.3924864,94.7248125 62.5703958,94.4330049 61.9808394,93.8470363 C61.391283,93.2634211 61.0953304,92.5762612 61.0953304,91.78791 C61.0953304,91.2795999 61.2855857,90.6089131 61.6637473,89.7711428 C62.0442578,88.9333726 62.457652,88.2744521 62.9086274,87.7967348 C64.7782963,85.8529195 66.4647564,84.1891455 67.9680078,82.800706 C69.4712591,81.4146198 70.5470234,80.5015443 71.1929517,80.0661862 C72.3462274,79.2495955 73.3045501,78.4282983 74.0702688,77.6046477 C74.8359875,76.7809972 75.4184974,75.9361671 75.8201473,75.0701574 C76.2194485,74.2041477 76.4214479,73.3569643 76.4214479,72.5262539 C76.4214479,71.6249448 76.2077043,70.8177673 75.7778684,70.1070746 C75.3480325,69.3963818 74.7655226,68.8433593 74.0279899,68.4480071 C73.2904572,68.0550081 72.4848084,67.857332 71.6133923,67.857332 C69.7719094,67.857332 68.32503,68.6668628 67.2704052,70.2859244 C67.1294754,70.4977203 66.8945923,71.0742756 66.5634073,72.0179438 C66.2322222,72.961612 65.861107,73.6864245 65.4453641,74.1923812 C65.0296211,74.7006913 64.4236229,74.952493 63.6226718,74.952493 C62.9203715,74.952493 62.3355128,74.7195176 61.8727932,74.25592 C61.4077248,73.7923224 61.1775395,73.1592881 61.1775395,72.3544639 C61.1775395,71.3825563 61.3959807,70.3682895 61.8305143,69.3140168 C62.2650479,68.2573908 62.9156739,67.2996029 63.7800434,66.440653 C64.6444129,65.5817032 65.7413167,64.8874835 67.0684058,64.3603471 C68.3978437,63.8332108 69.9527693,63.5672893 71.7378803,63.5672893 C73.8894089,63.5672893 75.7238453,63.9061627 77.2411897,64.5815561 C78.2253495,65.0333873 79.0897191,65.6523018 79.8342983,66.440653 C80.5788775,67.2290043 81.1590385,68.1420797 81.5724327,69.1751728 C81.9881756,70.2106192 82.1948727,71.2837182 82.1948727,72.3968231 C82.1948727,74.1429622 81.7626879,75.7314311 80.8983184,77.1598765 C80.0339488,78.5883218 79.1507887,79.7084865 78.2511867,80.5180174 C77.3515847,81.3275482 75.8436357,82.5983233 73.7296884,84.3303427 C71.6133923,86.0623621 70.1618152,87.4084424 69.3749571,88.3662303 C69.043772,88.7474629 68.698494,89.2063539 68.3485183,89.7405501 Z M68.158263,42.9383733 C66.8593599,42.9383733 65.8094328,41.8864539 65.8094328,40.585086 L65.8094328,32.3532872 C65.8094328,31.0519194 66.8593599,30 68.158263,30 C69.4571662,30 70.5070933,31.0519194 70.5070933,32.3532872 L70.5070933,40.585086 C70.5070933,41.8864539 69.4571662,42.9383733 68.158263,42.9383733 Z M109.373188,105.291072 L59.7893808,105.291072 C55.3289521,105.291072 51.6976605,101.655243 51.6976605,97.1863509 L51.6976605,57.0580968 L117.464908,57.0580968 L117.464908,97.1863509 C117.464908,101.655243 113.833616,105.291072 109.373188,105.291072 M122.164917,54.7048095 C122.164917,54.700103 122.162568,54.6977497 122.162568,54.6930431 L122.162568,47.5108104 C122.162568,40.4438888 116.426725,34.6971613 109.373188,34.6971613 C108.074285,34.6971613 107.024357,35.7490807 107.024357,37.0504486 C107.024357,38.3518164 108.074285,39.4037358 109.373188,39.4037358 C113.833616,39.4037358 117.464908,43.0419179 117.464908,47.5108104 L117.464908,52.3515223 L51.6976605,52.3515223 L51.6976605,47.5108104 C51.6976605,43.0419179 55.3289521,39.4037358 59.7893808,39.4037358 C61.0882839,39.4037358 62.1382111,38.3518164 62.1382111,37.0504486 C62.1382111,35.7490807 61.0882839,34.6971613 59.7893808,34.6971613 C52.7358435,34.6971613 47,40.4438888 47,47.5108104 L47,97.1887042 C47,104.253273 52.7358435,110 59.7893808,110 L109.375537,110 C116.429074,110 122.164917,104.253273 122.162568,97.1863509 L122.162568,54.716576 C122.162568,54.7118694 122.164917,54.7095161 122.164917,54.7048095 Z M83.4280086,42.9383733 C82.1291054,42.9383733 81.0791783,41.8864539 81.0791783,40.585086 L81.0791783,32.3532872 C81.0791783,31.0519194 82.1291054,30 83.4280086,30 C84.7269117,30 85.7768388,31.0519194 85.7768388,32.3532872 L85.7768388,40.585086 C85.7768388,41.8864539 84.7269117,42.9383733 83.4280086,42.9383733 Z M98.6907076,42.9383733 C97.3918045,42.9383733 96.3418774,41.8864539 96.3418774,40.585086 L96.3418774,32.3532872 C96.3418774,31.0519194 97.3918045,30 98.6907076,30 C99.9896108,30 101.039538,31.0519194 101.039538,32.3532872 L101.039538,40.585086 C101.039538,41.8864539 99.9896108,42.9383733 98.6907076,42.9383733 Z" id="calendario"></path>
                        </g>
                    </g>
                </g>
            </g>
        </g>
    </g>
</svg>