<?xml version="1.0" encoding="UTF-8" standalone="no"?>
<svg width="80px" height="80px" viewBox="0 0 80 80" version="1.1" xmlns="http://www.w3.org/2000/svg" xmlns:xlink="http://www.w3.org/1999/xlink">
    <!-- Generator: Sketch 3.6.1 (26313) - http://www.bohemiancoding.com/sketch -->
    <title>calendar_1_</title>
    <desc>Created with Sketch.</desc>
    <defs></defs>
    <g id="Home" stroke="none" stroke-width="1" fill="none" fill-rule="evenodd">
        <g id="Home-LG-2" transform="translate(-384.000000, -1556.000000)" fill="#30B1BE">
            <g id="Group-33" transform="translate(0.000000, 1421.000000)">
                <g id="Group-9" transform="translate(135.000000, 113.000000)">
                    <g id="small-calendar" transform="translate(249.000000, 22.000000)">
                        <g id="Capa_1">
                            <g id="calendar_1_">
                                <path d="M72.7576176,7.44095087 L62.007924,7.44095087 L62.007924,2.48031696 C62.007924,1.10870168 60.8992223,0 59.527607,0 C58.1559917,0 57.04729,1.10870168 57.04729,2.48031696 L57.04729,7.44095087 L42.1653883,7.44095087 L42.1653883,2.48031696 C42.1653883,1.10870168 41.0542063,0 39.6850713,0 C38.3159364,0 37.2047544,1.10870168 37.2047544,2.48031696 L37.2047544,7.44095087 L22.3228526,7.44095087 L22.3228526,2.48031696 C22.3228526,1.10870168 21.2116706,0 19.8425357,0 C18.4734007,0 17.3622187,1.10870168 17.3622187,2.48031696 L17.3622187,7.44095087 L6.61500533,7.44095087 C2.96149845,7.44095087 0,10.399969 0,14.0534759 L0,72.7551373 C0,76.4086442 2.96149845,79.3701427 6.61500533,79.3701427 L72.7576176,79.3701427 C76.4111245,79.3701427 79.3701427,76.4086442 79.3701427,72.7551373 L79.3701427,14.0534759 C79.3701427,10.399969 76.4111245,7.44095087 72.7576176,7.44095087 L72.7576176,7.44095087 Z M74.4095087,72.7551373 C74.4095087,73.667894 73.667894,74.4095087 72.7576176,74.4095087 L6.61500533,74.4095087 C5.70224869,74.4095087 4.96063392,73.667894 4.96063392,72.7551373 L4.96063392,14.0534759 C4.96063392,13.1431996 5.70224869,12.4015848 6.61500533,12.4015848 L17.3622187,12.4015848 L17.3622187,17.3622187 C17.3622187,18.733834 18.4734007,19.8425357 19.8425357,19.8425357 C21.2116706,19.8425357 22.3228526,18.733834 22.3228526,17.3622187 L22.3228526,12.4015848 L37.2047544,12.4015848 L37.2047544,17.3622187 C37.2047544,18.733834 38.3159364,19.8425357 39.6850713,19.8425357 C41.0542063,19.8425357 42.1653883,18.733834 42.1653883,17.3622187 L42.1653883,12.4015848 L57.04729,12.4015848 L57.04729,17.3622187 C57.04729,18.733834 58.1559917,19.8425357 59.527607,19.8425357 C60.8992223,19.8425357 62.007924,18.733834 62.007924,17.3622187 L62.007924,12.4015848 L72.7576176,12.4015848 C73.667894,12.4015848 74.4095087,13.1431996 74.4095087,14.0534759 L74.4095087,72.7551373 L74.4095087,72.7551373 Z" id="Shape"></path>
                                <rect id="Rectangle-path" x="16.9014085" y="29.2957746" width="9.92126783" height="7.44095087"></rect>
                                <rect id="Rectangle-path" x="16.9014085" y="41.6901408" width="9.92126783" height="7.44095087"></rect>
                                <rect id="Rectangle-path" x="16.9014085" y="54.084507" width="9.92126783" height="7.44095087"></rect>
                                <rect id="Rectangle-path" x="34.9295775" y="54.084507" width="9.92126783" height="7.44095087"></rect>
                                <rect id="Rectangle-path" x="34.9295775" y="41.6901408" width="9.92126783" height="7.44095087"></rect>
                                <rect id="Rectangle-path" x="34.9295775" y="29.2957746" width="9.92126783" height="7.44095087"></rect>
                                <rect id="Rectangle-path" x="51.8309859" y="54.084507" width="9.92126783" height="7.44095087"></rect>
                                <rect id="Rectangle-path" x="51.8309859" y="41.6901408" width="9.92126783" height="7.44095087"></rect>
                                <rect id="Rectangle-path" x="51.8309859" y="29.2957746" width="9.92126783" height="7.44095087"></rect>
                            </g>
                        </g>
                    </g>
                </g>
            </g>
        </g>
    </g>
</svg>