<?xml version="1.0" encoding="UTF-8" standalone="no"?>
<svg width="12px" height="12px" viewBox="0 0 12 12" version="1.1" xmlns="http://www.w3.org/2000/svg" xmlns:xlink="http://www.w3.org/1999/xlink">
    <!-- Generator: Sketch 3.7.1 (28215) - http://www.bohemiancoding.com/sketch -->
    <title>Page 1 Copy 3</title>
    <desc>Created with Sketch.</desc>
    <defs></defs>
    <g id="Extra-Programáticas" stroke="none" stroke-width="1" fill="none" fill-rule="evenodd">
        <g id="Academias" transform="translate(-484.000000, -870.000000)" fill="#257FA7">
            <path d="M492.625,877.5 C492.417625,877.5 492.25,877.667625 492.25,877.875 C492.25,878.082375 492.417625,878.25 492.625,878.25 C494.072125,878.25 495.25,879.427875 495.25,880.875 C495.25,881.081625 495.081625,881.25 494.875,881.25 L485.125,881.25 C484.918375,881.25 484.75,881.081625 484.75,880.875 C484.75,879.427875 485.927875,878.25 487.375,878.25 C487.582375,878.25 487.75,878.082375 487.75,877.875 C487.75,877.667625 487.582375,877.5 487.375,877.5 C485.513875,877.5 484,879.013875 484,880.875 C484,881.49525 484.50475,882 485.125,882 L494.875,882 C495.49525,882 496,881.49525 496,880.875 C496,879.01425 494.486125,877.5 492.625,877.5 M490,870.750375 C491.447125,870.750375 492.625,872.26425 492.625,874.125375 C492.625,875.986125 491.447125,877.500375 490,877.500375 C488.552875,877.500375 487.375,875.986125 487.374625,874.125375 C487.374625,872.26425 488.5525,870.750375 490,870.750375 M490,878.25 C491.861125,878.25 493.375,876.399 493.375,874.125 C493.375,871.851 491.86075,870 490,870 C489.082375,870 488.22475,870.44025 487.58575,871.239375 C486.965875,872.01375 486.625,873.039 486.625,874.125375 C486.625,876.399 488.138875,878.25 490,878.25" id="Page-1-Copy-3"></path>
        </g>
    </g>
</svg>