<?xml version="1.0" encoding="UTF-8" standalone="no"?>
<svg width="63px" height="80px" viewBox="0 0 63 80" version="1.1" xmlns="http://www.w3.org/2000/svg" xmlns:xlink="http://www.w3.org/1999/xlink">
    <!-- Generator: Sketch 3.6.1 (26313) - http://www.bohemiancoding.com/sketch -->
    <title>Combined Shape</title>
    <desc>Created with Sketch.</desc>
    <defs></defs>
    <g id="HOME" stroke="none" stroke-width="1" fill="none" fill-rule="evenodd">
        <g id="Home-LG-2" transform="translate(-189.000000, -1134.000000)" fill="#257FA7">
            <g id="Group-20" transform="translate(0.000000, 988.000000)">
                <path d="M250.312282,164.039865 L233.146911,146.779798 C232.650249,146.280404 231.976783,146 231.274652,146 L191.647791,146 C190.185666,146 189,147.192189 189,148.662088 L189,223.337643 C189,224.807811 190.185666,226 191.647791,226 L248.440291,226 C249.902416,226 251.088082,224.807811 251.088082,223.337643 L251.088082,165.922155 C251.088082,165.216162 250.808944,164.53899 250.312282,164.039865 L250.312282,164.039865 Z M233.922443,155.089562 L242.048248,163.260067 L233.922443,163.260067 L233.922443,155.089562 L233.922443,155.089562 Z M194.295583,220.675286 L194.295583,151.324444 L228.62686,151.324444 L228.62686,165.922155 C228.62686,167.392593 229.812527,168.584512 231.274652,168.584512 L245.792499,168.584512 L245.792499,220.675556 L194.295583,220.675556 L194.295583,220.675286 Z M219.594961,184.764287 C219.171058,183.698559 218.144485,183 217.00297,183 C215.861738,183 214.835165,183.698559 214.411262,184.764287 L205.200348,207.918672 C204.627896,209.357817 205.324045,210.990911 206.755316,211.56708 C208.186023,212.142114 209.810747,211.442419 210.383764,210.003274 L211.523867,207.136627 L222.482356,207.136627 L223.622459,210.003274 C224.059352,211.100523 225.107389,211.768413 226.215297,211.768413 C226.560406,211.768413 226.911163,211.703385 227.250907,211.56708 C228.682178,210.991195 229.37861,209.358101 228.806158,207.918672 L219.594961,184.764287 Z M213.757193,201.523168 L217.003253,193.363376 L220.249595,201.523168 L213.757193,201.523168 L213.757193,201.523168 Z M236.865344,185.07875 L234.619593,185.07875 L234.619593,182.806446 C234.619593,181.256554 233.369631,180 231.828218,180 C230.286806,180 229.037126,181.256554 229.037126,182.806446 L229.037126,185.07875 L226.791374,185.07875 C225.249679,185.07875 224,186.335304 224,187.885196 C224,189.435372 225.249679,190.691926 226.791374,190.691926 L229.037126,190.691926 L229.037126,192.96423 C229.037126,194.514121 230.286806,195.770959 231.828218,195.770959 C233.369631,195.770959 234.619593,194.514121 234.619593,192.96423 L234.619593,190.691926 L236.865344,190.691926 C238.406757,190.691926 239.656719,189.435372 239.656719,187.885196 C239.656436,186.33502 238.406757,185.07875 236.865344,185.07875 Z" id="Combined-Shape"></path>
            </g>
        </g>
    </g>
</svg>