<?xml version="1.0" encoding="UTF-8" standalone="no"?>
<svg width="70px" height="80px" viewBox="0 0 70 80" version="1.1" xmlns="http://www.w3.org/2000/svg" xmlns:xlink="http://www.w3.org/1999/xlink">
    <!-- Generator: Sketch 3.6.1 (26313) - http://www.bohemiancoding.com/sketch -->
    <title>Group</title>
    <desc>Created with Sketch.</desc>
    <defs></defs>
    <g id="Home" stroke="none" stroke-width="1" fill="none" fill-rule="evenodd">
        <g id="Home-LG-2" transform="translate(-979.000000, -1554.000000)" fill="#30B1BE">
            <g id="Group-33" transform="translate(0.000000, 1421.000000)">
                <g id="Group-9" transform="translate(135.000000, 113.000000)">
                    <g id="food" transform="translate(844.000000, 20.000000)">
                        <g id="Capa_1">
                            <g id="Group">
                                <path d="M66.7796648,40.303619 C66.7777737,39.5177143 66.7497857,30.0921905 66.4736882,20.7832381 C66.305004,15.087619 66.0769399,10.5447619 65.7970602,7.28 C65.6261067,5.28114286 65.4396463,3.78704762 65.2267109,2.71314286 C65.0391159,1.76495238 64.6900227,0 63.2493989,0 C63.1495499,0 63.0493228,0.0102857143 62.9513649,0.0308571429 C62.1624068,0.195809524 61.4241297,0.72 59.7308577,5.7287619 C58.7070277,8.75733333 57.5818358,12.7272381 56.5633008,16.9074286 C55.3533886,21.8693333 52.6109462,34.1154286 53.2754712,40.6407619 C53.672976,44.544381 55.3254006,45.3638095 56.640835,45.3638095 C56.6657973,45.3638095 60.2573341,45.3771429 60.5478038,45.384 C60.4627052,48.5272381 59.9105102,53.096 59.3742003,57.5329524 C58.6468914,63.5493333 57.8946202,69.7702857 58.1491595,73.4121905 C58.4290391,77.424381 61.0931909,78.848 63.2891116,78.848 C64.8624891,78.848 66.4691496,78.1725714 67.5867772,77.0407619 C68.5875361,76.0281905 69.1344361,74.7139048 69.1276282,73.3405714 C69.1049352,68.8114286 66.9226303,42.0518095 66.7796648,40.303619 L66.7796648,40.303619 Z M65.777393,75.2266667 C65.1382084,75.8739048 64.1847265,76.2761905 63.2894898,76.2761905 C61.7539338,76.2761905 60.8326002,75.1946667 60.6960643,73.231619 C60.4589231,69.8358095 61.1960656,63.7390476 61.9090023,57.8430476 C62.560668,52.4518095 63.1767815,47.3588571 63.1071898,44.0838095 C63.0924394,43.384381 62.5251157,42.8255238 61.8310898,42.8255238 C60.8636139,42.8255238 57.4123952,42.7721905 56.6419697,42.792 C56.486523,42.792 56.3390188,42.5310476 56.2421956,42.312381 C55.1113305,39.7417143 55.881756,31.5386667 58.2531688,20.9028571 C59.8881955,13.5699048 61.735023,7.46971429 62.925268,4.39161905 C63.2630147,6.83314286 63.6809431,11.8670476 63.9619574,22.2419048 C64.2104451,31.4034286 64.2274648,40.272 64.2274648,40.360381 C64.2274648,40.3954286 64.2289777,40.4297143 64.2320034,40.464 C64.2550746,40.7474286 66.5531135,68.8697143 66.5754283,73.3535238 C66.5795886,74.2300952 66.1435059,74.855619 65.777393,75.2266667 L65.777393,75.2266667 Z" id="Shape"></path>
                                <path d="M48.7024645,7.31352381 C48.7024645,6.60342857 48.1309805,6.02780952 47.4259864,6.02780952 C46.7209922,6.02780952 46.1495082,6.60342857 46.1495082,7.31352381 C46.1495082,11.655619 46.2406582,15.7942857 46.3140321,19.1192381 C46.3318082,19.9424762 46.3488279,20.6986667 46.3620655,21.384 L43.2595616,21.4297143 L43.2595616,7.94209524 C43.2595616,7.232 42.6880776,6.65638095 41.9830834,6.65638095 C41.2784675,6.65638095 40.7066053,7.232 40.7066053,7.94209524 L40.7066053,21.4678095 L37.7924529,21.5108571 L37.7924529,7.94209524 C37.7924529,7.232 37.2205907,6.65638095 36.5159747,6.65638095 C35.8109805,6.65638095 35.2394965,7.232 35.2394965,7.94209524 L35.2394965,21.5489524 L32.4036348,21.5908571 L32.4036348,6.88266667 C32.4036348,6.17257143 31.8321508,5.59695238 31.1271566,5.59695238 C30.4221625,5.59695238 29.8506785,6.17257143 29.8506785,6.88266667 L29.8506785,23.8849524 C29.8506785,28.2518095 33.1816246,31.192 38.4524394,31.6270476 L38.4524394,42.4952381 C37.5303494,42.5093333 37.0273224,42.5238095 37.017867,42.5241905 C36.4002407,42.5424762 35.8839762,43.0034286 35.7932044,43.6190476 C34.9130963,49.5390476 33.0352551,65.0632381 33.1884325,72.6285714 C33.2818518,77.2186667 36.2667305,78.8472381 38.7943464,78.8472381 C41.7311917,78.8472381 44.9967066,76.6731429 45.1532879,73.1611429 C45.3492037,68.7622857 44.1899724,53.0045714 43.6948879,46.2758095 C43.6052508,45.0502857 43.5375502,44.1375238 43.5061583,43.6674286 C43.4611506,42.992381 42.904417,42.4678095 42.2327058,42.4678095 C41.7996488,42.4678095 41.3907976,42.4693333 41.0065304,42.4708571 L41.0065304,31.6182857 C45.7433045,31.0921905 48.9520869,27.4285714 48.9520869,24.1135238 C48.9520869,22.9333333 48.9150218,21.2251429 48.8669884,19.0624762 C48.7928581,15.7497143 48.7024645,11.6274286 48.7024645,7.31352381 L48.7024645,7.31352381 Z M41.1472266,46.4659048 C41.6392853,53.1489524 42.7909523,68.8007619 42.6018444,73.0460952 C42.5159894,74.9782857 40.5628833,76.2758095 38.7932118,76.2758095 C36.9002419,76.2758095 35.7875312,74.9272381 35.7394978,72.576 C35.6056094,65.944381 37.1729355,52.0445714 38.1612132,45.071619 C38.8329244,45.0605714 39.8075864,45.047619 41.0428391,45.0426667 C41.0727181,45.4495238 41.1078922,45.928 41.1472266,46.4659048 L41.1472266,46.4659048 Z M39.8378437,29.1135238 C36.3314054,29.1135238 32.5923645,27.8049524 32.4115773,24.1622857 L46.3976177,23.9554286 C46.3976177,24.0091429 46.3983742,24.0624762 46.3983742,24.1139048 C46.3979959,26.4255238 43.5322552,29.1135238 39.8378437,29.1135238 L39.8378437,29.1135238 Z" id="Shape"></path>
                                <path d="M0.214448333,19.2529524 C0.214448333,23.0910476 1.43948916,26.5828571 3.66453245,29.0849524 C5.54237367,31.1973333 8.01136612,32.4971429 10.7254424,32.8365714 L10.7254424,43.3965714 C9.80297415,43.4106667 9.30032541,43.4247619 9.29087002,43.4255238 C8.67324369,43.4438095 8.15697919,43.9047619 8.06582919,44.52 C7.18572113,50.440381 5.3078799,65.9641905 5.46105728,73.5295238 C5.55447658,78.119619 8.53935531,79.7485714 11.0669712,79.7485714 C14.0034383,79.7485714 17.2697096,77.5744762 17.4262909,74.0624762 C17.6218285,69.663619 16.4625972,53.9059048 15.9675127,47.1767619 C15.8774974,45.951619 15.810175,45.0384762 15.7787831,44.5687619 C15.7337754,43.8937143 15.1770418,43.3691429 14.5053306,43.3691429 C14.0722736,43.3691429 13.6634224,43.3702857 13.2787769,43.3725714 L13.2787769,32.8731429 C16.1161515,32.5977143 18.7027691,31.2784762 20.6528495,29.0853333 C22.8775146,26.5828571 24.1029336,23.0914286 24.1029336,19.2533333 C24.101799,11.1447619 18.7439946,4.54819048 12.1581237,4.54819048 C5.57225272,4.54819048 0.214448333,11.1447619 0.214448333,19.2529524 Z M13.4209861,47.3672381 C13.9126665,54.0502857 15.0643335,69.7017143 14.8756039,73.9470476 C14.7897489,75.8792381 12.8366427,77.1771429 11.0669712,77.1771429 C9.17437957,77.1771429 8.0612906,75.8285714 8.0132572,73.4773333 C7.87899061,66.8457143 9.44669491,52.9455238 10.4349727,45.9729524 C11.1070621,45.9615238 12.0809676,45.9489524 13.3165985,45.943619 C13.3460993,46.3508571 13.3812734,46.8289524 13.4209861,47.3672381 L13.4209861,47.3672381 Z M2.76740468,19.2529524 C2.76740468,12.5626667 6.97997176,7.11961905 12.1581237,7.11961905 C17.3362756,7.11961905 21.5492209,12.5626667 21.5492209,19.2529524 C21.5488426,25.6872381 17.5995137,30.3577143 12.1581237,30.3577143 C6.71673359,30.3577143 2.76740468,25.687619 2.76740468,19.2529524 Z" id="Shape"></path>
                            </g>
                        </g>
                    </g>
                </g>
            </g>
        </g>
    </g>
</svg>