<?xml version="1.0" encoding="UTF-8" standalone="no"?>
<svg width="30px" height="30px" viewBox="0 0 30 30" version="1.1" xmlns="http://www.w3.org/2000/svg" xmlns:xlink="http://www.w3.org/1999/xlink">
    <!-- Generator: Sketch 3.6.1 (26313) - http://www.bohemiancoding.com/sketch -->
    <title>ico-adobe</title>
    <desc>Created with Sketch.</desc>
    <defs></defs>
    <g id="Guías-de-Estudio" stroke="none" stroke-width="1" fill="none" fill-rule="evenodd">
        <g id="Guía-Estudio---02" transform="translate(-331.000000, -725.000000)" fill="#D80027">
            <g id="Group-7" transform="translate(331.000000, 720.000000)">
                <path d="M13.8333333,14.3333333 L13.8333333,14.3333333 L13.8333333,14.3333333 C14,13.6666667 14.1666667,13.3333333 14.1666667,12.8333333 L14.1666667,12.5 C14.3333333,11.6666667 14.3333333,11 14.1666667,10.8333333 C14.1666667,10.8333333 14.1666667,10.8333333 14.1666667,10.6666667 L14,10.5 L14,10.5 L14,10.5 C14,10.5 14,10.6666667 13.8333333,10.6666667 C13.5,11.6666667 13.5,12.8333333 13.8333333,14.3333333 L13.8333333,14.3333333 L13.8333333,14.3333333 Z M8.83333333,25.8333333 C8.5,26 8.16666667,26.1666667 8,26.3333333 C6.83333333,27.3333333 6,28.4999346 5.83333333,29 L5.83333333,29 L5.83333333,29 L5.83333333,29 C6.83333333,28.8333333 7.83333333,27.8333333 8.83333333,25.8333333 L8.83333333,25.8333333 L8.83333333,25.8333333 L8.83333333,25.8333333 Z M24.1666667,23.3333333 C24,23.1666667 23.3333333,22.6666667 21,22.6666667 L20.6666667,22.6666667 L20.6666667,22.6666667 C20.6666667,22.6666667 20.6666667,22.6666667 20.6666667,22.8333333 C21.8333333,23.3333333 23,23.6666667 23.8333333,23.6666667 L24.1666667,23.6666667 L24.1666667,23.6666667 L24.3333333,23.6666667 C24.3333333,23.6666667 24.3333333,23.6666667 24.3333333,23.5 L24.3333333,23.5 C24.3333333,23.5 24.1666667,23.5 24.1666667,23.3333333 L24.1666667,23.3333333 Z M26.6666667,5 L3.33333333,5 C1.5,5 0,6.5 0,8.33333333 L0,31.6666667 C0,33.5 1.5,35 3.33333333,35 L26.6666667,35 C28.5,35 30,33.5 30,31.6666667 L30,8.33333333 C30,6.5 28.5,5 26.6666667,5 L26.6666667,5 Z M24.8333333,24.6666667 C24.4999346,24.8333333 24,25 23.3333333,25 C22,25 20,24.6666667 18.3333333,23.8333333 C15.5,24.1666667 13.3333333,24.4999346 11.6666667,25.1666013 C11.5,25.1666013 11.5,25.1666013 11.3333333,25.333268 C9.33333333,28.8333333 7.66666667,30.5 6.33333333,30.5 C6,30.5 5.83333333,30.5 5.66666667,30.333268 L4.83333333,29.8333333 L4.83333333,29.6666667 C4.66666667,29.333268 4.66666667,29.1666667 4.66666667,28.8333333 C4.83333333,28 5.83333333,26.5 7.83333333,25.333268 C8.16666667,25.1666013 8.66666667,24.8333333 9.33333333,24.4999346 C9.83333333,23.6666013 10.3333333,22.6666013 11,21.5 C11.8333333,19.8333333 12.3333333,18.1666667 12.8333333,16.6666667 L12.8333333,16.6666667 C12.1666667,14.6666667 11.8333333,13.5 12.5,11.1666667 C12.6666667,10.5 13.1666667,9.83333333 13.8333333,9.83333333 L14.1666667,9.83333333 C14.5,9.83333333 14.8333333,10 15.1666667,10.1666667 C16.3333987,11.3333333 15.8333333,14 15.1666667,16.1666667 L15.1666667,16.3333333 C15.8333333,18.1666667 16.8333333,19.6666667 17.8333333,20.6666667 C18.3333333,21 18.6666667,21.3333333 19.3333333,21.6666667 C20.1666667,21.6666667 20.8333333,21.5 21.5,21.5 C23.5,21.5 24.8333333,21.8333333 25.333268,22.6666667 C25.5,23.0000654 25.5,23.3333333 25.5,23.6666667 C25.3333333,23.8333333 25.1666667,24.3333333 24.8333333,24.6666667 L24.8333333,24.6666667 Z M14,18.1666667 C13.6666667,19.3333333 13,20.6666667 12.3333333,22.1666667 C12,22.833268 11.6666667,23.3333333 11.3333333,24 L11.5,24 L11.6666667,24 L11.6666667,24 C13.8333333,23.1666667 15.8333333,22.6666667 17.1666667,22.5 C16.833268,22.3333333 16.6666667,22.1666667 16.5,22 C15.6666667,21 14.6666667,19.6666667 14,18.1666667 L14,18.1666667 Z" id="ico-adobe"></path>
            </g>
        </g>
    </g>
</svg>