<?xml version="1.0" encoding="UTF-8" standalone="no"?>
<svg width="50px" height="50px" viewBox="0 0 50 50" version="1.1" xmlns="http://www.w3.org/2000/svg" xmlns:xlink="http://www.w3.org/1999/xlink">
    <!-- Generator: Sketch 3.6.1 (26313) - http://www.bohemiancoding.com/sketch -->
    <title>nature</title>
    <desc>Created with Sketch.</desc>
    <defs></defs>
    <g id="Dep-Inglés" stroke="none" stroke-width="1" fill="none" fill-rule="evenodd">
        <g id="Bilingüe" transform="translate(-695.000000, -385.000000)" fill="#1A3760">
            <g id="nature" transform="translate(695.000000, 385.000000)">
                <g id="Capa_1">
                    <g id="language">
                        <path d="M25,0 C11.25,0 0,11.25 0,25 C0,38.75 11.25,50 25,50 C38.75,50 50,38.75 50,25 C50,11.25 38.75,0 25,0 L25,0 Z M42.4242424,15.7575758 L34.65821,15.7575758 C33.8548273,12.4747475 32.5158562,9.6969697 30.9090909,6.66666667 C35.7293869,8.43434343 40.0140944,11.4646465 42.4242424,15.7575758 L42.4242424,15.7575758 Z M25.7575758,5.75757576 C27.7990431,9.03030303 29.585327,12.5757576 30.6060606,16.6666667 L20.9090909,16.6666667 C21.9298246,12.8484848 23.7161085,9.03030303 25.7575758,5.75757576 L25.7575758,5.75757576 Z M6.54381654,31.8181818 C6.01965602,30.1818182 5.75757576,28.2727273 5.75757576,26.3636364 C5.75757576,24.4545455 6.01965602,22.5454545 6.54381654,20.9090909 L15.4545455,20.9090909 C15.1924652,22.8181818 15.1924652,24.4545455 15.1924652,26.3636364 C15.1924652,28.2727273 15.4545455,29.9090909 15.4545455,31.8181818 L6.54381654,31.8181818 L6.54381654,31.8181818 Z M8.78787879,34.8484848 L16.5539112,34.8484848 C17.3572939,38.1313131 18.696265,40.9090909 20.3030303,43.9393939 C15.4827343,42.1717172 11.1980268,39.1414141 8.78787879,34.8484848 L8.78787879,34.8484848 Z M16.5539112,15.7575758 L8.78787879,15.7575758 C11.465821,11.4646465 15.4827343,8.43434343 20.3030303,6.66666667 C18.696265,9.6969697 17.3572939,12.4747475 16.5539112,15.7575758 L16.5539112,15.7575758 Z M25.7575758,45.7575758 C23.7161085,42.4848485 21.9298246,38.9393939 20.9090909,34.8484848 L30.6060606,34.8484848 C29.585327,38.6666667 27.7990431,42.4848485 25.7575758,45.7575758 L25.7575758,45.7575758 Z M31.657754,31.8181818 L19.9049317,31.8181818 C19.6494355,29.9090909 19.3939394,28.2727273 19.3939394,26.3636364 C19.3939394,24.4545455 19.6494355,22.8181818 19.9049317,20.9090909 L31.9132501,20.9090909 C32.1687463,22.8181818 32.4242424,24.4545455 32.4242424,26.3636364 C32.4242424,28.2727273 31.9132501,29.9090909 31.657754,31.8181818 L31.657754,31.8181818 Z M30.9090909,43.9393939 C32.5158562,41.1616162 33.8548273,38.1314122 34.65821,34.8484848 L42.4242424,34.8484848 C40.0140944,39.1414141 35.7293869,42.1717172 30.9090909,43.9393939 L30.9090909,43.9393939 Z M35.7575758,31.8181818 C36.0196588,29.9090909 36.0196588,28.2727273 36.0196588,26.3636364 C36.0196588,24.4545455 35.7575758,22.8181818 35.7575758,20.9090909 L44.6683991,20.9090909 C45.1925652,22.5454545 45.4545455,24.4545455 45.4545455,26.3636364 C45.4545455,28.2727273 45.1924624,30.1818182 44.6683991,31.8181818 L35.7575758,31.8181818 L35.7575758,31.8181818 Z" id="Shape"></path>
                    </g>
                </g>
            </g>
        </g>
    </g>
</svg>