<?xml version="1.0" encoding="UTF-8" standalone="no"?>
<svg width="10px" height="12px" viewBox="0 0 10 12" version="1.1" xmlns="http://www.w3.org/2000/svg" xmlns:xlink="http://www.w3.org/1999/xlink">
    <!-- Generator: Sketch 3.7.1 (28215) - http://www.bohemiancoding.com/sketch -->
    <title>location</title>
    <desc>Created with Sketch.</desc>
    <defs></defs>
    <g id="Extra-Programáticas" stroke="none" stroke-width="1" fill="none" fill-rule="evenodd">
        <g id="Academias" transform="translate(-467.000000, -868.000000)" fill="#257FA7">
            <path d="M471.51798,880 C471.426859,880 471.339845,879.961363 471.276732,879.892974 C471.102332,879.700947 467,875.173804 467,872.674351 C467,870.096851 469.026705,868 471.51798,868 C474.008882,868 476.03596,870.096851 476.03596,872.674351 C476.03596,875.17419 471.934002,879.701333 471.759228,879.892974 C471.696488,879.961363 471.609101,880 471.51798,880 Z M471.51798,868.685427 C469.392311,868.685427 467.662871,870.474725 467.662871,872.673965 C467.662871,874.404533 470.25199,877.710348 471.51798,879.152296 C472.784344,877.709962 475.373089,874.40492 475.373089,872.673965 C475.373462,870.474725 473.643649,868.685427 471.51798,868.685427 Z M471.51798,874.137163 C470.464108,874.137163 469.607044,873.250435 469.607044,872.160088 C469.607044,871.070127 470.464108,870.183012 471.51798,870.183012 C472.571478,870.183012 473.428916,871.070127 473.428916,872.160088 C473.428916,873.250435 472.571852,874.137163 471.51798,874.137163 Z M471.51798,870.868826 C470.829341,870.868826 470.269542,871.448001 470.269542,872.160088 C470.269542,872.872561 470.829341,873.451735 471.51798,873.451735 C472.206246,873.451735 472.766045,872.872561 472.766045,872.160088 C472.766045,871.448001 472.206246,870.868826 471.51798,870.868826 Z" id="location"></path>
        </g>
    </g>
</svg>