<?xml version="1.0" encoding="UTF-8" standalone="no"?>
<svg width="65px" height="80px" viewBox="0 0 65 80" version="1.1" xmlns="http://www.w3.org/2000/svg" xmlns:xlink="http://www.w3.org/1999/xlink">
    <!-- Generator: Sketch 3.6.1 (26313) - http://www.bohemiancoding.com/sketch -->
    <title>graduation</title>
    <desc>Created with Sketch.</desc>
    <defs></defs>
    <g id="Home" stroke="none" stroke-width="1" fill="none" fill-rule="evenodd">
        <g id="Home-LG-2" transform="translate(-1188.000000, -1556.000000)" fill="#30B1BE">
            <g id="Group-33" transform="translate(0.000000, 1421.000000)">
                <g id="Group-9" transform="translate(135.000000, 113.000000)">
                    <g id="graduation" transform="translate(1053.000000, 22.000000)">
                        <g id="Capa_1">
                            <g id="Group">
                                <path d="M64.3260475,70.6376087 C61.2643011,63.3326087 50.9170843,40.391087 50.9170843,40.391087 C54.5213749,36.111087 56.7012709,30.5804348 56.7012709,24.5447826 C56.7012709,11.0108696 45.7622662,0 32.3161542,0 C18.8702583,0 7.93060563,11.0108696 7.93060563,24.5447826 C7.93060563,30.5804348 10.1111496,36.111087 13.7147923,40.391087 L0.280127332,70.8428261 C-0.0213821171,71.5265217 0.123973083,72.3271739 0.647079018,72.8586957 C1.17018495,73.3895652 1.96110731,73.5458696 2.64663094,73.2502174 L11.5778765,69.3745652 L14.7108966,78.6426087 C14.9504195,79.3513043 15.5972825,79.8395652 16.3396091,79.8730435 C16.3670387,79.873913 16.3944683,79.8747826 16.421034,79.8747826 C17.1326913,79.8747826 17.7810662,79.4534783 18.0722086,78.7945652 L31.1900294,49.06 C31.5636765,49.0778261 31.9388355,49.0893478 32.3163702,49.0893478 C32.693905,49.0893478 33.068416,49.0778261 33.442711,49.06 L46.5605319,78.7945652 C46.8516743,79.4528261 47.4996172,79.8747826 48.2117065,79.8747826 C48.2382722,79.8747826 48.2652698,79.873913 48.2926994,79.8730435 C49.035458,79.8395652 49.681889,79.3513043 49.9218439,78.6426087 L53.054864,69.3745652 L61.923907,73.1886957 C62.1550066,73.2884783 62.3975533,73.3373913 62.6385881,73.3373913 L62.6571624,73.3373913 C63.6556425,73.3373913 64.4698908,72.6084783 64.5420284,71.5871739 C64.558443,71.3513043 64.5061756,71.0667391 64.3260475,70.6376087 L64.3260475,70.6376087 Z M16.6441423,73.0719565 L14.3683507,66.34 C14.206365,65.8597826 13.8515082,65.47 13.3914688,65.2641304 C13.1586413,65.1604348 12.9081033,65.1078261 12.6582133,65.1078261 C12.4148028,65.1078261 12.1713922,65.1576087 11.9428843,65.256087 L5.45589556,68.0715217 L16.4473836,43.1580435 C19.5406633,45.8330435 23.2998122,47.7458696 27.4425434,48.5967391 L16.6441423,73.0719565 L16.6441423,73.0719565 Z M11.5431035,24.5447826 C11.5431035,13.0154348 20.8616029,3.63608696 32.3161542,3.63608696 C43.7702736,3.63608696 53.088557,13.0154348 53.088557,24.5447826 C53.088557,36.0736957 43.7700576,45.4530435 32.3161542,45.4530435 C20.8616029,45.4530435 11.5431035,36.073913 11.5431035,24.5447826 L11.5431035,24.5447826 Z M52.6892082,65.256087 C52.2267929,65.0573913 51.7013112,65.0602174 51.2410557,65.2641304 C50.7803683,65.47 50.4261595,65.8597826 50.2637418,66.34 L47.9883822,73.0719565 L37.190197,48.5967391 C41.3327123,47.7463043 45.0920772,45.8330435 48.1849248,43.1580435 L59.1764129,68.0715217 L52.6892082,65.256087 L52.6892082,65.256087 Z" id="Shape"></path>
                                <path d="M32.3161542,8.18152174 C23.3525116,8.18152174 16.0590498,15.5228261 16.0590498,24.5447826 C16.0590498,33.5667391 23.3527276,40.9078261 32.3161542,40.9078261 C41.2795809,40.9078261 48.5728267,33.5669565 48.5728267,24.5447826 C48.5728267,15.5226087 41.2797969,8.18152174 32.3161542,8.18152174 L32.3161542,8.18152174 Z M32.3161542,37.2715217 C25.3440722,37.2715217 19.6715477,31.5623913 19.6715477,24.5447826 C19.6715477,17.5271739 25.3440722,11.8180435 32.3161542,11.8180435 C39.2882363,11.8180435 44.9601128,17.5271739 44.9601128,24.5447826 C44.9603288,31.5623913 39.2882363,37.2715217 32.3161542,37.2715217 L32.3161542,37.2715217 Z" id="Shape"></path>
                            </g>
                        </g>
                    </g>
                </g>
            </g>
        </g>
    </g>
</svg>