<?xml version="1.0" encoding="UTF-8" standalone="no"?>
<svg width="40px" height="40px" viewBox="0 0 40 40" version="1.1" xmlns="http://www.w3.org/2000/svg" xmlns:xlink="http://www.w3.org/1999/xlink">
    <!-- Generator: Sketch 3.6.1 (26313) - http://www.bohemiancoding.com/sketch -->
    <title>news</title>
    <desc>Created with Sketch.</desc>
    <defs></defs>
    <g id="Noticias" stroke="none" stroke-width="1" fill="none" fill-rule="evenodd">
        <g id="Noticias-LG-LG" transform="translate(-639.000000, -191.000000)" fill="#FFFFFF">
            <g id="Group-7" transform="translate(639.000000, 191.000000)">
                <g id="commerce" transform="translate(20.000000, 20.000000) scale(-1, 1) translate(-20.000000, -20.000000) ">
                    <g id="Capa_1">
                        <g id="news">
                            <path d="M36.25,0 L8.75,0 C6.67875,0 5,1.6775 5,3.75 L5,6.25 L3.75,6.25 C1.67875,6.25 0,7.9275 0,10 L0,35 C0,37.76125 2.23875,40 5,40 L35,40 C37.76125,40 40,37.76125 40,35 L40,3.75 C40,1.6775 38.32,0 36.25,0 L36.25,0 Z M37.5,35 C37.5,36.3775 36.3775,37.5 35,37.5 L5,37.5 C3.62125,37.5 2.5,36.3775 2.5,35 L2.5,10 C2.5,9.31 3.06,8.75 3.75,8.75 L5,8.75 L5,33.75 C5,34.44125 5.55875,35 6.25,35 C6.94125,35 7.5,34.44125 7.5,33.75 L7.5,3.75 C7.5,3.06 8.06,2.5 8.75,2.5 L36.25,2.5 C36.93875,2.5 37.5,3.06 37.5,3.75 L37.5,35 L37.5,35 Z" id="Shape"></path>
                            <path d="M24.7426471,16.5441176 L34.7426471,16.5441176 C35.0888971,16.5441176 35.3676471,16.2641176 35.3676471,15.9191176 C35.3676471,15.5741176 35.0888971,15.2941176 34.7426471,15.2941176 L24.7426471,15.2941176 C24.3988971,15.2941176 24.1176471,15.5741176 24.1176471,15.9191176 C24.1176471,16.2641176 24.3988971,16.5441176 24.7426471,16.5441176 L24.7426471,16.5441176 Z" id="Shape"></path>
                            <path d="M24.7426471,13.0147059 L34.7426471,13.0147059 C35.0888971,13.0147059 35.3676471,12.7347059 35.3676471,12.3897059 C35.3676471,12.0447059 35.0888971,11.7647059 34.7426471,11.7647059 L24.7426471,11.7647059 C24.3988971,11.7647059 24.1176471,12.0447059 24.1176471,12.3897059 C24.1176471,12.7347059 24.3988971,13.0147059 24.7426471,13.0147059 L24.7426471,13.0147059 Z" id="Shape"></path>
                            <path d="M24.7426471,8.89705882 L34.7426471,8.89705882 C35.0888971,8.89705882 35.3676471,8.61705882 35.3676471,8.27205882 C35.3676471,7.92705882 35.0888971,7.64705882 34.7426471,7.64705882 L24.7426471,7.64705882 C24.3988971,7.64705882 24.1176471,7.92705882 24.1176471,8.27205882 C24.1176471,8.61705882 24.3988971,8.89705882 24.7426471,8.89705882 L24.7426471,8.89705882 Z" id="Shape"></path>
                            <path d="M20.625,34.1176471 L10.625,34.1176471 C10.28,34.1176471 10,34.3988971 10,34.7426471 C10,35.0888971 10.28,35.3676471 10.625,35.3676471 L20.625,35.3676471 C20.96875,35.3676471 21.25,35.0888971 21.25,34.7426471 C21.25,34.3988971 20.97,34.1176471 20.625,34.1176471 L20.625,34.1176471 Z" id="Shape"></path>
                            <path d="M20.625,30 L10.625,30 C10.28,30 10,30.28125 10,30.625 C10,30.97125 10.28,31.25 10.625,31.25 L20.625,31.25 C20.96875,31.25 21.25,30.97125 21.25,30.625 C21.25,30.28125 20.97,30 20.625,30 L20.625,30 Z" id="Shape"></path>
                            <path d="M20.625,26.4705882 L10.625,26.4705882 C10.28,26.4705882 10,26.7518382 10,27.0955882 C10,27.4418382 10.28,27.7205882 10.625,27.7205882 L20.625,27.7205882 C20.96875,27.7205882 21.25,27.4418382 21.25,27.0955882 C21.25,26.7518382 20.97,26.4705882 20.625,26.4705882 L20.625,26.4705882 Z" id="Shape"></path>
                            <path d="M34.7426471,34.1176471 L24.7426471,34.1176471 C24.3963971,34.1176471 24.1176471,34.3988971 24.1176471,34.7426471 C24.1176471,35.0888971 24.3963971,35.3676471 24.7426471,35.3676471 L34.7426471,35.3676471 C35.0863971,35.3676471 35.3676471,35.0888971 35.3676471,34.7426471 C35.3676471,34.3988971 35.0863971,34.1176471 34.7426471,34.1176471 L34.7426471,34.1176471 Z" id="Shape"></path>
                            <path d="M34.7426471,30 L24.7426471,30 C24.3963971,30 24.1176471,30.28125 24.1176471,30.625 C24.1176471,30.97125 24.3963971,31.25 24.7426471,31.25 L34.7426471,31.25 C35.0863971,31.25 35.3676471,30.97125 35.3676471,30.625 C35.3676471,30.28125 35.0863971,30 34.7426471,30 L34.7426471,30 Z" id="Shape"></path>
                            <path d="M34.7426471,26.4705882 L24.7426471,26.4705882 C24.3963971,26.4705882 24.1176471,26.7518382 24.1176471,27.0955882 C24.1176471,27.4418382 24.3963971,27.7205882 24.7426471,27.7205882 L34.7426471,27.7205882 C35.0863971,27.7205882 35.3676471,27.4418382 35.3676471,27.0955882 C35.3676471,26.7518382 35.0863971,26.4705882 34.7426471,26.4705882 L34.7426471,26.4705882 Z" id="Shape"></path>
                            <path d="M34.375,18.8235294 L10.625,18.8235294 C10.28,18.8235294 10,19.1035294 10,19.4485294 C10,19.7935294 10.28,20.0735294 10.625,20.0735294 L34.375,20.0735294 C34.71875,20.0735294 35,19.7935294 35,19.4485294 C35,19.1035294 34.71875,18.8235294 34.375,18.8235294 L34.375,18.8235294 Z" id="Shape"></path>
                            <path d="M34.375,22.9411765 L10.625,22.9411765 C10.28,22.9411765 10,23.2224265 10,23.5661765 C10,23.9124265 10.28,24.1911765 10.625,24.1911765 L34.375,24.1911765 C34.71875,24.1911765 35,23.9124265 35,23.5661765 C35,23.2224265 34.71875,22.9411765 34.375,22.9411765 L34.375,22.9411765 Z" id="Shape"></path>
                            <path d="M11.25,16.5391176 L20,16.5391176 C20.69125,16.5391176 21.25,15.9803676 21.25,15.2891176 L21.25,6.54411765 C21.25,5.85286765 20.69125,5.29411765 20,5.29411765 L11.25,5.29411765 C10.55875,5.29411765 10,5.85286765 10,6.54411765 L10,15.2891176 C10,15.9791176 10.55875,16.5391176 11.25,16.5391176 L11.25,16.5391176 Z M12.5,7.78911765 L18.75,7.78911765 L18.75,14.0391176 L12.5,14.0391176 L12.5,7.78911765 L12.5,7.78911765 Z" id="Shape"></path>
                        </g>
                    </g>
                </g>
            </g>
        </g>
    </g>
</svg>