<?xml version="1.0" encoding="UTF-8" standalone="no"?>
<svg width="76px" height="81px" viewBox="0 0 76 81" version="1.1" xmlns="http://www.w3.org/2000/svg" xmlns:xlink="http://www.w3.org/1999/xlink">
    <!-- Generator: Sketch 3.6.1 (26313) - http://www.bohemiancoding.com/sketch -->
    <title>Shape</title>
    <desc>Created with Sketch.</desc>
    <defs></defs>
    <g id="Home" stroke="none" stroke-width="1" fill="none" fill-rule="evenodd">
        <g id="Home-LG-2" transform="translate(-183.000000, -1556.000000)" fill="#30B1BE">
            <g id="Group-33" transform="translate(0.000000, 1421.000000)">
                <g id="Group-9" transform="translate(135.000000, 113.000000)">
                    <g id="user-outline" transform="translate(48.000000, 22.000000)">
                        <g id="Capa_1">
                            <g id="user">
                                <path d="M55.1619239,49.8037398 C61.6324438,44.7686208 65.8025736,36.9763146 65.8025736,28.2061801 C65.8025736,13.0186652 53.3399517,0.70619535 37.9672232,0.70619535 C22.5944947,0.70619535 10.1318728,13.0186652 10.1318728,28.2061801 C10.1318728,36.9761924 14.3021264,44.7686208 20.7725224,49.8037398 C9.17021102,55.6461356 1.00431526,67.1862946 0.100939757,80.7061953 L5.16949506,80.7061953 C6.14625435,68.0463874 14.476614,57.4363756 25.9423053,52.9786864 C29.5862498,54.7086528 33.6552758,55.7064093 37.9672232,55.7064093 C42.2817693,55.7064093 46.3481966,54.708775 49.9920173,52.9786864 C61.4577087,57.4363756 69.7880683,68.0463874 70.7648276,80.7061953 L75.8333829,80.7061953 C74.9326061,67.1862946 66.7641116,55.6461356 55.1619239,49.8037398 L55.1619239,49.8037398 Z M37.9672232,50.7063787 C25.3881525,50.7063787 15.1927556,40.633818 15.1927556,28.2061801 C15.1927556,15.7786644 25.3881525,5.70622591 37.9672232,5.70622591 C50.5462939,5.70622591 60.7416908,15.7786644 60.7416908,28.2061801 C60.741567,40.633818 50.5462939,50.7063787 37.9672232,50.7063787 L37.9672232,50.7063787 Z" id="Shape"></path>
                            </g>
                        </g>
                    </g>
                </g>
            </g>
        </g>
    </g>
</svg>